<svg xmlns="http://www.w3.org/2000/svg" viewBox="0 0 1458.63 841.11"><defs><style>.cls-1{isolation:isolate;}.cls-2{fill:#623d72;}.cls-3{fill:#886a93;}.cls-4,.cls-5{fill:#8750a8;}.cls-15,.cls-35,.cls-43,.cls-5{mix-blend-mode:multiply;}.cls-6{fill:#979a9b;}.cls-7{fill:#8c9091;}.cls-35,.cls-8{fill:#502862;}.cls-9{fill:#3d1152;}.cls-10{fill:#9a81a4;}.cls-11,.cls-15{fill:#b8a5bf;}.cls-12{fill:#7e5f8b;}.cls-13{fill:#59326a;}.cls-14{fill:#a48dad;}.cls-16{fill:#6e2d97;}.cls-17{fill:#9766b4;}.cls-18{fill:#441a58;}.cls-19{fill:#76389d;}.cls-20{fill:#d7d8d9;}.cls-21{fill:#bdbfbf;}.cls-22{fill:#b8babb;}.cls-23{fill:#9ea0a1;}.cls-24{fill:#6c497a;}.cls-25,.cls-43{fill:#755483;}.cls-26{fill:#461d5a;}.cls-27{fill:#c3c5c6;}.cls-28{fill:#d5d6d6;}.cls-29{fill:#e4e5e5;}.cls-30{fill:#b2b4b5;}.cls-31{fill:#9c9e9f;}.cls-32{fill:#959899;}.cls-33{fill:#bcbebe;}.cls-34{fill:#d3d4d4;}.cls-35{opacity:0.3;}.cls-36{fill:#dfe0e1;}.cls-37{fill:#acaeaf;}.cls-38{fill:#a3a6a7;}.cls-39{fill:#939697;}.cls-40{fill:#b3b5b5;}.cls-41{fill:#e9e9e9;}.cls-42{fill:#9fa1a2;}.cls-43{opacity:0.6;}.cls-44{fill:#bf9fd0;}.cls-45{fill:#a97ec0;}.cls-46{fill:#935fb0;}.cls-47{fill:#7c41a1;}.cls-48{fill:#d2bbde;}.cls-49{fill:#dcc9e5;}.cls-50{fill:#e4d5eb;}.cls-51{fill:#573168;}.cls-52{fill:#ae85c4;}</style></defs><g class="cls-1"><g id="Layer_1" data-name="Layer 1"><path class="cls-2" d="M910,769.06c12-6.87,24.89-13.72,37-21,16.4,9.41,32.28,19.56,47.93,30.16C966.75,774.65,938.29,771.45,910,769.06Z"/><path class="cls-3" d="M828.26,785.39q22.71,1.08,45.37,2.68c24.93-12.5,49.32-25.82,73.36-40C907.79,761.79,868.21,774.13,828.26,785.39Z"/><path class="cls-4" d="M469.49,674.54c25.92,20.62,44.93,48.11,73.54,65.24,9.45-.53,19-1.51,28.34-2.9q-22.79-37.65-44-76.15c-9.53,3.34-60.67-4.87-58.49,8.26Z"/><path class="cls-5" d="M507,718.27c8.36,5.57,12.54,8.23,20.89,13.33,5.54.11,8.3.1,13.8,0,11,1,16.44,1.23,27.33,1.41-4.53-7.44-6.8-11.23-11.35-18.93A445.31,445.31,0,0,1,507,718.27Z"/><path class="cls-2" d="M152.51,336.78q23.15,54.56,47.12,108.75c25.91,18.89,91.83,88.22,119.53,104.34C306.71,518.2,255,434.79,242.9,403q-28.08-32.19-56-64.51C175.27,338.45,164.09,337.9,152.51,336.78Z"/><path class="cls-6" d="M186.9,338.45q20.72,37.8,41.62,75.51c29.9,21.73,60.41,42.39,92.21,61.21C288.88,428.67,258,381.49,227.67,334A387.26,387.26,0,0,1,186.9,338.45Z"/><path class="cls-7" d="M212.47,357.87C238.27,396,273.66,425.58,300.32,463c8.18,5.06,12.27,7.5,20.41,12.18C288.88,428.67,258,381.49,227.67,334,221,340.88,219.87,351.68,212.47,357.87Z"/><path class="cls-8" d="M204.7,440c14.63,2.37,29.52,2.24,44.24.86-10.87-17.24-22.2-34.18-33.12-51.39-30.22-58.67-32.4-17.43-50.81-20.72C178.35,392.48,191.51,416.27,204.7,440Z"/><path class="cls-9" d="M134.54,334.15c22.52,36.57,44.73,73.53,65.09,111.38Q193,392,186.9,338.45A259,259,0,0,1,134.54,334.15Z"/><path class="cls-10" d="M199.63,445.53c16.39,33.69,72.37,119,89,152.57,12.55-14.57,21.8-31.17,30.57-48.23C291.46,533.75,225.54,464.42,199.63,445.53Z"/><path class="cls-11" d="M319.16,549.87c29.35,46.5,57.41,93.21,94.73,133.67-46.25-21.31-87.82-51-125.3-85.44C301.14,583.53,310.39,566.93,319.16,549.87Z"/><path class="cls-12" d="M288.59,598.1c60.74,73,138.24,135.94,226,172.48q-6.57,16.09-13.45,32C417.59,751.32,345.6,677.8,288.59,598.1Z"/><path class="cls-13" d="M288.59,598.1c37.48,34.48,79.05,64.13,125.3,85.44,31.51,31.59,64.7,60.75,100.68,87C426.83,734,349.33,671.15,288.59,598.1Z"/><path class="cls-13" d="M501.12,802.59q6.88-15.95,13.45-32a690.51,690.51,0,0,0,111.49,60.65C583.2,826.18,541.85,817.06,501.12,802.59Z"/><path class="cls-10" d="M566.84,802.34a610.1,610.1,0,0,0,59.22,28.89c22.52-5.43,45.53-11,67.15-19.54,23.27-9.16,44.19-24.23,64.85-38.24-31.27,13.33-60,24-94,27.45A565.07,565.07,0,0,1,566.84,802.34Z"/><path class="cls-14" d="M702.46,807.68c18.7-11,37.65-22,55.6-34.23q16.31,5.34,32.58,10.76C761.7,793.13,731.92,800.68,702.46,807.68Z"/><path class="cls-11" d="M702.46,807.68c57-4.55,114.48-11.91,171.17-19.61-27.07-2-54.16-3.28-81.28-4.4C762.85,792.8,732.5,800.54,702.46,807.68Z"/><path class="cls-15" d="M930.41,770.92l8.7.86c0-3.85-7.14-18-7.31-18.45l-8.13,2.75C925.79,759.28,928.3,767.69,930.41,770.92Z"/><path class="cls-8" d="M483.56,701.77a907.91,907.91,0,0,0,79.53,64.17,553.18,553.18,0,0,0,65.43-7.4,617.15,617.15,0,0,1-88-22.68C521,725.28,504.22,708.28,483.56,701.77Z"/><path class="cls-4" d="M540.51,735.86c9.47-.51,19-1.48,28.41-2.87,19.58,9.3,39.38,17.78,59.6,25.55A617.15,617.15,0,0,1,540.51,735.86Z"/><path class="cls-5" d="M468.76,668.73c.28,2.52.55,4.9.73,5.81a488,488,0,0,0,76.89,20c-7.5-13-15.18-26.06-21.84-39.52C506.12,662.23,488.38,666,468.76,668.73Z"/><path class="cls-16" d="M563.09,765.94a553.18,553.18,0,0,0,65.43-7.4q27.86,12.09,56.3,22.48C643.64,779.76,603.29,775.15,563.09,765.94Z"/><path class="cls-17" d="M628.52,758.54q27.86,12.09,56.3,22.48c34.12-4.6,67.65-20.68,99.21-34.1-25.28,6.06-50.66,11.63-76.37,15.53C681.44,766.43,654.63,762.08,628.52,758.54Z"/><path class="cls-4" d="M688.09,764.56c32.59-2.31,64.79-10.14,96.5-17.81q-20.43-11.41-40.69-23.13C725.86,738.08,707.72,752.35,688.09,764.56Z"/><path class="cls-4" d="M820.87,738.66q20.19,3.86,40.29,8c15.55-16,30.65-32.35,45.48-49-30.06,8.75-60.19,17.07-90.55,24.7C818,728.89,819,732.15,820.87,738.66Z"/><path class="cls-5" d="M822.68,738c5.7,1.12,17-5.46,22.76-4.33l-8.89-16.57c-7.47,1.9-11.2,2.83-18.65,4.62C819.83,728.22,820.78,731.47,822.68,738Z"/><path class="cls-18" d="M861.16,746.7c15.55-16,30.65-32.35,45.48-49,8.59,12.66,16.86,25.52,25,38.49Q896.41,741.46,861.16,746.7Z"/><path class="cls-19" d="M914.75,709.81q8.65,13,16.89,26.35,53-23.16,104.27-50C995.61,694.55,955.21,702.33,914.75,709.81Z"/><path class="cls-20" d="M723.15,748.56c-21.16-9.06-40.7-18.9-60.08-31.47,26.63-3.48,51.16-13.08,76-23.06C734,712.28,728.78,730.48,723.15,748.56Z"/><path class="cls-21" d="M731.29,721.74q-20.65-4-40.91-9.8C706.83,706.48,723,700.5,739.09,694Q735.36,707.94,731.29,721.74Z"/><path class="cls-22" d="M723.15,748.56c5.63-18.08,10.87-36.28,15.94-54.53,13.75-8.17,19.6-1,33-9.71,3.42,3.78,55.82,28.4,55.82,28.4A1075.66,1075.66,0,0,1,723.15,748.56Z"/><path class="cls-23" d="M731.29,721.74q4.07-13.8,7.8-27.71c13.75-8.17,11.45-5.8,24.89-14.48l46.26,24.83C782,712,760,716.54,731.29,721.74Z"/><path class="cls-2" d="M227.67,334c35.9,56.13,112,163.46,150.21,218a274.63,274.63,0,0,0,40.74-10.87c-3.54-21.39-46.58-94.44-50.14-115.82-43.21-38-83.94-78.63-124-120-3,11-4.51,16.39-7.7,26.79C233.18,332.9,231.35,333.28,227.67,334Z"/><path class="cls-12" d="M418.62,541.1c31.51,34.84,64.29,68.13,100.39,98.14-40.42-51.71-116-158.09-150.53-214C372,446.66,415.08,519.71,418.62,541.1Z"/><path class="cls-13" d="M377.88,552c43.85,34.56,89.61,65.63,141.13,87.27-36.1-30-68.88-63.3-100.39-98.14A274.63,274.63,0,0,1,377.88,552Z"/><path class="cls-24" d="M377.88,552c26.93,38.08,55,86.94,90.95,117,35.19.35,68.34-4.88,102-15.28-17.92-3.13-34.67-8.27-51.78-14.47C467.49,617.6,421.73,586.53,377.88,552Z"/><path class="cls-13" d="M468.83,669c62.27,21.57,124.86,27.72,190.23,21.11a791.21,791.21,0,0,1-88.27-36.39C537.17,664.11,504,669.34,468.83,669Z"/><path class="cls-24" d="M659.06,690.1c48.09,3.95,97-8.31,143.15-21-36.7-4.12-72.59-10.39-107.94-21.39a263.59,263.59,0,0,1-42.71,6.7Q655.34,672.27,659.06,690.1Z"/><path class="cls-16" d="M733.08,711.29c23.6-13.18,46.54-27.27,69.13-42.15-46.11,12.65-95.06,24.91-143.15,21C683.07,700.4,707.48,706.38,733.08,711.29Z"/><path class="cls-8" d="M733.08,711.29c28.59-4.44,56.72-10.4,84.82-17.29,27.6-17.64,54.5-36.22,81-55.53-32,11.18-64.07,21.61-96.67,30.67C779.62,684,756.68,698.11,733.08,711.29Z"/><path class="cls-2" d="M817.9,694c36.88-9.51,73.38-20.32,109.71-31.79q-14.22-12.08-28.73-23.74C872.4,657.78,845.5,676.36,817.9,694Z"/><path class="cls-12" d="M927.61,662.21c58.52-38.85,113.17-82.06,174.63-116.1-70.86,23.8-135.32,61.43-203.36,92.36Q913.42,650.17,927.61,662.21Z"/><path class="cls-25" d="M1021.48,596.78c31.37-3.2,60.41-.76,91.74,2.12q-5.29-26.45-11-52.79C1073.91,561.82,1047.54,577.42,1021.48,596.78Z"/><path class="cls-24" d="M1113.22,598.9c41.74-15.74,83.49-31.37,126.06-44.69-45.61-4.14-91.28-6.67-137-8.1Q1107.93,572.46,1113.22,598.9Z"/><path class="cls-13" d="M1164.3,580c48.3-3.23,96.55-5.63,145-4.65q-34.82-11.15-70-21.15C1214,562.13,1189.12,570.85,1164.3,580Z"/><path class="cls-26" d="M1309.25,575.36c26.48-9.92,52.84-17.51,80.72-22.12-35.27,1.06-69.32,6.59-103.58,15C1295.49,571,1300.06,572.45,1309.25,575.36Z"/><path class="cls-18" d="M1332.06,558.66c-22.43.1-44.67,1.21-67,3.11,8.5,2.54,12.77,3.83,21.35,6.47C1301.55,564.57,1316.71,561.38,1332.06,558.66Z"/><path class="cls-13" d="M294.51,371.55q4.28-15.36,8-30.89-20.86-20.94-41.27-42.3Q277.68,335,294.51,371.55Z"/><path class="cls-8" d="M272,427.72c6.06-8.65,11.73-17.75,16.92-27a272,272,0,0,0,29.2-12.9,559.74,559.74,0,0,1-83.45-18.54c-1.57,5.57-2.37,8.3-4,13.64Q251.17,405.5,272,427.72Z"/><path class="cls-13" d="M234.67,369.33q26.82,16.29,54.25,31.44a272,272,0,0,0,29.2-12.9A559.74,559.74,0,0,1,234.67,369.33Z"/><path class="cls-2" d="M337.29,409.25q-9.71-10.59-19.17-21.38a272,272,0,0,1-29.2,12.9c-5.19,9.2-10.86,18.3-16.92,27A322.77,322.77,0,0,0,337.29,409.25Z"/><path class="cls-27" d="M234.64,418.28c9.31,12.89,18,26.22,27.39,39,14.26,23.11,68.1,97.82,82.58,120.78,5.62-17-28.72-85.69-23.88-102.9-28-16.55-54.93-34.49-81.38-53.44"/><path class="cls-28" d="M320.73,475.17c-4.84,17.21,29.5,85.93,23.88,102.9q16,27.79,32.22,55.44C371.24,598,326.21,510.74,320.73,475.17Z"/><path class="cls-29" d="M364.8,556.35c26.6,32.72,53.91,64.74,82.78,95.44a358.74,358.74,0,0,1-70.75-18.28Q370.77,594.94,364.8,556.35Z"/><path class="cls-30" d="M376.83,633.51a358.74,358.74,0,0,0,70.75,18.28c24,28.21,55.87,50.11,86.14,71a409.94,409.94,0,0,1-65.34-2.4C435.4,694.47,402.6,666.94,376.83,633.51Z"/><path class="cls-31" d="M474.85,679c19.81,17.24,38.78,30,58.87,43.85,43.62,4.25,86.21,1.9,129.35-5.73C597.67,716.25,535.3,704.49,474.85,679Z"/><path class="cls-7" d="M576.15,724.92a535.43,535.43,0,0,0,86.92-7.83c19.38,12.57,38.92,22.41,60.08,31.47C672.89,752.53,624,740.07,576.15,724.92Z"/><path class="cls-32" d="M723.15,748.56l98.53,4.57L828,712.72A1075.66,1075.66,0,0,1,723.15,748.56Z"/><polygon class="cls-33" points="827.95 712.72 857.26 764.56 821.68 753.13 827.95 712.72"/><path class="cls-34" d="M925,749.33,894.87,756s33.41,18,43.9,29.46C938.11,769.76,925,749.33,925,749.33Z"/><path class="cls-25" d="M651.56,654.45q3.78,17.82,7.5,35.65a791.21,791.21,0,0,1-88.27-36.39A543.06,543.06,0,0,0,651.56,654.45Z"/><path class="cls-26" d="M199.63,445.53a224,224,0,0,0,17.75-23.81q-.81-16.11-1.56-32.21c-25.63-56.87-41.64-14.71-62-23.55C169.1,392.48,184.67,418.82,199.63,445.53Z"/><path class="cls-9" d="M234.67,369.33a559.74,559.74,0,0,0,83.45,18.54q-.75-48-2.34-96.08c-4.93,1.2-7.4,1.77-12.38,2.82q-3.3,33.09-7.34,66.08a470.23,470.23,0,0,1-58.5-1.95C236.42,363,235.85,365.15,234.67,369.33Z"/><path class="cls-35" d="M258.8,370c15.67,1.36,31.18,2,46.91,2-3.86-4.49-5.78-6.75-9.62-11.28-12,.37-23.84.37-35.85,0C259.68,364.41,259.39,366.27,258.8,370Z"/><path class="cls-2" d="M374.37,191.06a990.29,990.29,0,0,0,93.15,48.68c7.89,25.65,55.29,103,63.22,128.58-27-7.84-92.72-68.93-118.69-79.79q-23.66-30.13-46.35-61Q370.22,209.33,374.37,191.06Z"/><path class="cls-6" d="M365.7,227.54c19.56,15.5,39.41,30.52,59.75,45q19.46,46.41,39.64,92.48c-39.36-28.36-76-59.92-111.33-93.19C358,257.11,361.91,242.35,365.7,227.54Z"/><path class="cls-7" d="M357.2,259.66c31.69,30.09,64.37,58.82,99.1,85.3,3.52,8.08,5.28,12.08,8.79,20-39.36-28.36-76-59.92-111.33-93.19C355.15,267,355.84,264.53,357.2,259.66Z"/><path class="cls-8" d="M397.06,251q-5.24,25.2-11.23,50.21c-13.88-12.84-27.47-26-41-39.21q4.73-23.85,8.76-47.82C367.93,226.59,382.34,239,397.06,251Z"/><path class="cls-9" d="M370.6,105.76c32.37,44.62,64.47,89.43,96.92,134q-51-5.12-101.82-12.2C372.59,187.61,364.67,145.86,370.6,105.76Z"/><path class="cls-10" d="M467.52,239.74c27.05,12.62,93.88,75.25,122.26,84.42-19.34,15.2-39,30-59,44.16C522.81,342.69,475.41,265.39,467.52,239.74Z"/><path class="cls-11" d="M530.74,368.32c37.42,21.38,75.17,40.62,118.07,46.81-21.07-29.49-40.66-59.69-59-91C570.44,339.36,550.82,354.12,530.74,368.32Z"/><path class="cls-12" d="M589.78,324.16A372.27,372.27,0,0,0,769.3,412.67q19.63-23.44,39.33-46.84C733.81,374.26,654.92,364.64,589.78,324.16Z"/><path class="cls-13" d="M589.78,324.16c18.37,31.28,38,61.48,59,91,40.56,5.24,80.15,4.05,120.49-2.46A372.27,372.27,0,0,1,589.78,324.16Z"/><path class="cls-13" d="M808.63,365.83q-19.7,23.39-39.33,46.84c46-8.87,89.92-23.61,133.38-41.13A496.7,496.7,0,0,1,808.63,365.83Z"/><path class="cls-10" d="M829.57,397.64c24.54-7.92,49.19-16.42,73.11-26.1q18.63,31.72,35.88,64.19C901.43,425.74,864.69,413.51,829.57,397.64Z"/><path class="cls-14" d="M923.61,408.15c5.08,9.12,9.44,18,14.95,27.58Q963.27,419.82,988,404C966.6,405.66,945.07,407.18,923.61,408.15Z"/><path class="cls-11" d="M923.61,408.15c54.65-15.76,108.33-34.83,163.37-49.24-33.27,13.59-65.5,29-97.69,45C967.45,405.59,945.5,407.16,923.61,408.15Z"/><path class="cls-15" d="M1041.23,371.84c3.08-1,4.63-1.38,7.74-2.24-4.62,4.87-6.4,6.79-11,11.94-4.75,1.22-7.12,1.84-11.85,3.08C1032.37,379.21,1035,377.17,1041.23,371.84Z"/><path class="cls-3" d="M1032.06,383c18-8.71,36.39-16.56,54.92-24.13,14.77,3.12,29,6.29,43.31,11.34C1097.23,372.34,1064.65,377.16,1032.06,383Z"/><path class="cls-2" d="M1106.87,363.37c9.31,2.44,15.16,4,23.42,6.88a434.93,434.93,0,0,1,87.9-41.38A627.75,627.75,0,0,0,1106.87,363.37Z"/><path class="cls-8" d="M675.06,463.62c36.15-2.4,70.85-9.1,105.64-19.2q12.87,15.75,26,31.28a448.14,448.14,0,0,1-73.09-7.3A398.53,398.53,0,0,1,675.06,463.62Z"/><path class="cls-4" d="M733.59,468.4c3.54,7.36,5.3,11,8.78,18.2a573.66,573.66,0,0,0,64.31-10.9A448.14,448.14,0,0,1,733.59,468.4Z"/><path class="cls-4" d="M632.33,453.14A393.32,393.32,0,0,0,733.59,468.4c3.54,7.36,5.3,11,8.78,18.2C708,505.48,672.13,524.37,634,533.76Q633.62,493.44,632.33,453.14Z"/><path class="cls-5" d="M633.07,479.42c-.11-4.47-.27-10.66-.27-10.66,15.13,13.78,37.45,33.94,53.67,46.4-17.29,7.68-34.31,14.58-52.48,19.15C633.84,516.15,633.44,497.57,633.07,479.42Z"/><path class="cls-5" d="M693.43,462c7.15-.55,21.46-2.82,21.46-2.82,1.87,3.81,6.07,14.1,8.07,17.49,5.44,5.44,8.1,8,13.51,13.14-9.87,5.33-18.48,10.49-27.87,14.78C704.11,492.3,697.94,474.33,693.43,462Z"/><path class="cls-16" d="M780.7,444.42q12.87,15.75,26,31.28c22.68-7.66,44.91-16.29,67-25.63A495.12,495.12,0,0,1,780.7,444.42Z"/><path class="cls-17" d="M806.68,475.7c22.68-7.66,44.91-16.29,67-25.63,20.91,4,41.89,7.08,63,10C893.48,468.55,850.71,475.24,806.68,475.7Z"/><path class="cls-4" d="M855.29,472.84c27.41-3.26,54.7-7.48,81.77-12.83-23.62,17.3-31.14,17.74-55.14,34.5Z"/><path class="cls-4" d="M969.91,450.86c18.77-11.6,37.51-23.26,56.39-34.68q1.71,17.44,3.25,34.88c-27.76,8.32-55.46,16.84-83.24,25.1Q958.1,463.5,969.91,450.86Z"/><path class="cls-5" d="M969.91,450.86l19.91-12.31q-13.35,16.21-26.45,32.63c-6.84,2-10.26,3-17.06,5Q958.1,463.5,969.91,450.86Z"/><path class="cls-18" d="M1026.3,416.18q1.71,17.44,3.25,34.88c22.49-21,46.31-40.49,70.09-60C1074.86,398.56,1050.43,406.75,1026.3,416.18Z"/><path class="cls-19" d="M1052,430.78q23.71-20,47.66-39.74a718.53,718.53,0,0,1,82.33,3.61C1137.85,404,1094.75,416.49,1052,430.78Z"/><path class="cls-20" d="M871.65,485.61c-29.3,17.33-59,33.63-89.79,48.14,15.38,6.45,30.89,12.1,46.72,17.34Q850.25,518.45,871.65,485.61Z"/><path class="cls-21" d="M850.2,518.45c-17,7.85-34.19,15.45-51.66,22.28,9.87,3.79,19.94,7.23,30,10.36Q839.44,534.82,850.2,518.45Z"/><path class="cls-22" d="M871.65,485.61q-21.46,32.79-43.07,65.48,9.09,8.05,18.15,15.9c35.06-27.4,69.16-56,103.12-84.75C923.79,483.9,897.76,485.2,871.65,485.61Z"/><path class="cls-23" d="M850.2,518.45q-10.76,16.35-21.62,32.64,9.09,8.05,18.15,15.9c26.52-20.7,52.51-42,78.31-63.64C900.2,509,875.32,514.2,850.2,518.45Z"/><path class="cls-36" d="M1028.05,589.84c26.82-25.36,56-46.92,85.49-69q-28.9,5.83-57.69,12.21C1045.92,551.62,1037.13,570.82,1028.05,589.84Z"/><path class="cls-37" d="M1055.85,533c39.9-36.79,79.67-73.71,121.12-108.73-21.71,31.8-42.74,64-63.43,96.52Q1084.64,526.67,1055.85,533Z"/><path class="cls-7" d="M1103.93,489q25-15.71,50.3-30.82-11.14,16.85-22.12,33.79Q1118,490.32,1103.93,489Z"/><path class="cls-6" d="M1147.05,469c32.49-23.59,65.56-46,100.39-66-23.88,5.95-47.24,13.12-70.47,21.24Q1161.8,446.54,1147.05,469Z"/><path class="cls-38" d="M1205.89,414.74c11-7.38,22.35-14.73,33.55-21.75,3.2,4,4.8,6,8,10.08C1233.23,406.63,1219.72,410.44,1205.89,414.74Z"/><path class="cls-36" d="M1239.44,393c3.2,4,4.8,6,8,10.08,29.6-14.47,59.61-26.37,91.52-34.56C1304.66,372.81,1272,381.4,1239.44,393Z"/><path class="cls-2" d="M353.76,271.79c41.47,39,124.14,127.24,171.55,158.68-2.6,15.23-44.81-21.21-47.66-6a522.35,522.35,0,0,1-54,.05C389.74,380.62,358,335.21,327.28,289c7.45-9.06-8.8-20.79-.51-29.11C336.69,259.77,343.84,272,353.76,271.79Z"/><path class="cls-12" d="M477.65,424.45c32,24,104.66,96.74,141.19,112.94-56.2-9.54-146.35-83.68-195.16-112.89A522.35,522.35,0,0,0,477.65,424.45Z"/><path class="cls-13" d="M525.31,430.47c28.86,37.79,59.26,74,93.53,106.92-36.53-16.2-109.21-88.92-141.19-112.94C480.5,409.26,522.71,445.7,525.31,430.47Z"/><path class="cls-24" d="M525.31,430.47c34.17,20.19,69.32,36.89,107.22,48.6q10.53,43.62,20.67,87.34c-12.12-8.86-23.27-18.91-34.36-29C584.57,504.46,554.17,468.26,525.31,430.47Z"/><path class="cls-13" d="M632.53,479.07c35.78,33.35,74.07,61.94,117.11,85a416.54,416.54,0,0,1-96.44,2.32Q643.08,522.68,632.53,479.07Z"/><path class="cls-24" d="M749.64,564.09c41.45,2.37,82.43-2.05,123.34-8.52-44.21,22-89.11,41.46-136.59,55-9.85-3.49-19.66-7.48-29.14-11.88C721.7,587.55,735.77,576,749.64,564.09Z"/><path class="cls-16" d="M840.71,531.32q16.11,12.15,32.27,24.25c-40.91,6.47-81.89,10.89-123.34,8.52C780.91,555.51,810.94,544.18,840.71,531.32Z"/><path class="cls-8" d="M840.71,531.32c25.91-5,51.52-11,77.08-17.53q21,10.22,42,20.56c-28.83,7.56-57.69,14.82-86.79,21.22Q856.84,543.46,840.71,531.32Z"/><path class="cls-2" d="M917.79,513.79C952,503.68,986,492.84,1020,482.09q-30.19,26-60.18,52.26Q938.83,524,917.79,513.79Z"/><path class="cls-12" d="M1020,482.09c37.45,7.08,72,20.82,106.84,36-27.94-.43-57-2.1-84.72,1.49-27.51,3.56-55,9.89-82.3,14.73Q989.83,508.19,1020,482.09Z"/><path class="cls-25" d="M1077.69,498.14c37.57-15.15,75.31-29.72,113.79-42.36-22,20.29-43.5,41.16-64.69,62.35Q1102.4,507.68,1077.69,498.14Z"/><path class="cls-24" d="M1191.48,455.78A880.35,880.35,0,0,1,1293,469.65c-57.08,10.26-111.79,28.54-166.17,48.48C1148,496.94,1169.44,476.07,1191.48,455.78Z"/><path class="cls-13" d="M1232.65,460c55.13-10.2,109.59-13.63,165.12-4.55-35.91-.26-70.14,5-104.81,14.25C1272.94,465.69,1252.9,462.48,1232.65,460Z"/><path class="cls-26" d="M1397.77,455.4q26.67,18,52.24,37.41a578.92,578.92,0,0,0-87.12-36.27C1374.59,455.71,1386,455.34,1397.77,455.4Z"/><path class="cls-18" d="M1401.42,470.32a453.11,453.11,0,0,0-70.52-9.43,287.21,287.21,0,0,1,32-4.35C1375.9,460.82,1388.65,465.38,1401.42,470.32Z"/><path class="cls-9" d="M385.83,301.16c-.26,10.76-.41,16.12-.77,26.78-25-15.71-49.72-31.86-73.77-49,9.53-2.52,6.11-16.1,15.48-19.14,1.19-4,20,9.19,21.18,5.16C360.59,277,373.09,289.22,385.83,301.16Z"/><path class="cls-13" d="M385.06,327.94c-10.13,3.92-15.25,5.74-25.6,9q-16.33-23.85-32.18-48Q355.74,309.13,385.06,327.94Z"/><path class="cls-8" d="M359.46,337c-8.79,6.52-17.89,12.78-27.14,18.61q-7,16.31-14.3,32.4-1.84-47.79-4.4-95.54c5.5-1.31,8.23-2,13.66-3.49Q343.14,313.12,359.46,337Z"/><path class="cls-39" d="M335.86,410.82c8.57-24.41,16.35-49,23.6-73.85q28.59,44.8,58.82,88.45A530.87,530.87,0,0,1,335.86,410.82Z"/><path class="cls-13" d="M313.62,292.44q9.28,31.59,18.7,63.14-7,16.31-14.3,32.4Q316.18,340.19,313.62,292.44Z"/><path class="cls-2" d="M335.86,410.82q-9-11.34-17.84-22.84,7.37-16.12,14.3-32.4c9.25-5.83,18.35-12.09,27.14-18.61C352.21,361.81,344.43,386.41,335.86,410.82Z"/><path class="cls-27" d="M335.86,410.82q18.5,29.6,37.63,58.77c39.14,23.29,118.88,94.25,162.72,106.63-27.85-31.7-93.14-116.62-117.93-150.8A530.87,530.87,0,0,1,335.86,410.82Z"/><path class="cls-6" d="M418.28,425.42c24.79,34.18,90.08,119.1,117.93,150.8,28.19-5.9,81.73-28.79,81.73-28.79.16-2.32-40.63-13.6-58.93-20.36C523.8,514.05,449.66,446.27,418.28,425.42Z"/><path class="cls-28" d="M536.21,576.22c44.6,36.56,92.17,65.49,149.29,76.48a1169.57,1169.57,0,0,1-67.56-105.27A523.68,523.68,0,0,1,536.21,576.22Z"/><path class="cls-7" d="M617.94,547.43a434,434,0,0,0,71.76,51.69c-10.64,4.82-21.28,9.37-32.13,13.69C643.69,591.41,630.59,569.59,617.94,547.43Z"/><path class="cls-40" d="M689.7,599.12q-1.82,26.82-4.2,53.58Q671.19,633,657.57,612.81C668.42,608.49,679.06,603.94,689.7,599.12Z"/><path class="cls-36" d="M685.5,652.7c33.1,11,66.6,17.78,101.12,22.35q-10.85-28.42-22-56.74A662.06,662.06,0,0,1,685.5,652.7Z"/><path class="cls-37" d="M764.67,618.31q11.08,28.34,22,56.74c46.5-38.72,89.88-80.74,132.33-123.91C868.94,577,818.19,600.8,764.67,618.31Z"/><path class="cls-36" d="M786.62,675.05c44.7-23.77,87.39-50.65,129.26-79.18q1.67-22.36,3.07-44.73C876.5,594.31,833.12,636.33,786.62,675.05Z"/><path class="cls-41" d="M919,551.14q-1.4,22.36-3.07,44.73c37.39-2,74.77-4.28,112.17-6C992.19,575.43,955.71,563,919,551.14Z"/><path class="cls-37" d="M992.29,576.19c21-14.53,41.68-30,63.56-43.15-9.93,18.58-18.72,37.78-27.8,56.8Q1010.23,582.82,992.29,576.19Z"/><path class="cls-23" d="M689.7,599.12a447.67,447.67,0,0,0,75,19.19A662.06,662.06,0,0,1,685.5,652.7Q687.87,625.92,689.7,599.12Z"/><path class="cls-27" d="M425.45,272.5c10.55,10.79,21.17,21.5,32,32,17.78,11.72,75.31,74.39,94,84.55-15.4,9.67-70.47-32.81-86.4-24.06q-19.17-43.65-37.61-87.62"/><path class="cls-28" d="M465.09,365c15.93-8.75,71,33.73,86.4,24.06,14.93,6.28,30,11.9,45.32,17C566.16,412,496.28,363.88,465.09,365Z"/><path class="cls-29" d="M529.35,415.23c26.49,19.88,54.23,38.2,83.52,53.6q-7.95-31.4-16.06-62.74C574.56,410.36,551.92,413.19,529.35,415.23Z"/><path class="cls-30" d="M596.81,406.09q8.13,31.34,16.06,62.74c33.18,11,67.55,11.66,102.18,9.75q-9.62-22.71-19.16-45.45C660.82,429.29,628.46,422.09,596.81,406.09Z"/><path class="cls-31" d="M645.58,476.56c23.2,2.3,46.18,3.35,69.47,2a762.24,762.24,0,0,0,66.81,55.17C732.75,523.17,688.08,503.49,645.58,476.56Z"/><path class="cls-7" d="M737.17,498.66c14.51,12.2,29.28,24.06,44.69,35.09,30.78-14.51,60.49-30.81,89.79-48.14C827.08,495.69,782.88,501.15,737.17,498.66Z"/><path class="cls-32" d="M871.65,485.61c35.76-22,70.83-45.11,106-68-9.55,21.44-18.72,43-27.82,64.67C923.79,483.9,897.76,485.2,871.65,485.61Z"/><path class="cls-33" d="M949.85,482.24c32.92-41.33,65.9-82.91,102.29-121.23-25.58,17.79-50,37.23-74.47,56.56C968.12,439,959,460.61,949.85,482.24Z"/><path class="cls-42" d="M977.67,417.57c24.44-19.33,48.89-38.77,74.47-56.56a804,804,0,0,1,59.21-74.89C1060.82,324.52,1019,369.51,977.67,417.57Z"/><path class="cls-34" d="M1111.35,286.12c-8.8,9.89-17.35,19.88-25.78,30.1a806.54,806.54,0,0,1,80.77-42.32Q1138.68,279.34,1111.35,286.12Z"/><path class="cls-25" d="M707.25,598.74c14.45-11.19,28.52-22.74,42.39-34.65a416.54,416.54,0,0,1-96.44,2.32A590.74,590.74,0,0,0,707.25,598.74Z"/><path class="cls-26" d="M394.23,249.74l-23.8,37.81s-18.2-15.17-24.25-16.86c4.24-14.69,15.73-28.34,19.52-43.15C377,236.73,382.56,241.09,394.23,249.74Z"/><path class="cls-9" d="M313.62,292.44c1.49,27.29,2.85,54.58,3.87,81.89-27.95,1.11-55.65-1.62-83.56-2.84,1.42-5,4.35-18.42,5.71-23.56,1.62-4.16,20.18-23.2,20.18-23.2l43.45-30C307.43,293.89,309.5,293.42,313.62,292.44Z"/><path class="cls-35" d="M370.43,287.55,397.06,251l70.46-11.21L393.37,137.11c-7-9.66-22.42,77-22.42,77l-30,51.5Z"/><path class="cls-35" d="M370.43,287.55c-2.78,10.66-4.21,15.94-7.16,26.4-9.33-2.14-14-3.32-23.37-5.87-7,5.53-10.56,8.2-17.76,13.3-2.84-.93-7.09-2.37-7.09-2.37l-31.69,22.43L291.79,314s19.33-48,35-54.18c9.92-.07,17.07,12.12,27,12C360.4,278.19,363.74,281.34,370.43,287.55Z"/><path class="cls-5" d="M847.9,738.11c5.71,1.12,30.33,4,36.05,5.14l19.47-2.85L841,725.29Z"/><path class="cls-42" d="M836.92,728.58c7.61,13.19,20.34,36,20.34,36L925,749.33Z"/><path class="cls-43" d="M995.72,591.46l32.33-1.62s10.91-10,18.15-16.34c8-7,13.58-11.35,13.58-11.35l7.57-3.11L1029,593.52l-41.19,1.8Z"/><path class="cls-35" d="M270.53,382.76l-54.71,6.75-26.73,37.42c-3.75-6.37-29.84-51.77-33.6-58.06,0,0,101.12-59,136.3-54.85Z"/><path class="cls-2" d="M910,769.06c12-6.87,24.89-13.72,37-21,16.4,9.41,32.28,19.56,47.93,30.16C966.75,774.65,938.29,771.45,910,769.06Z"/><path class="cls-3" d="M828.26,785.39q22.71,1.08,45.37,2.68c24.93-12.5,49.32-25.82,73.36-40C907.79,761.79,868.21,774.13,828.26,785.39Z"/><path class="cls-4" d="M469.49,674.54c25.92,20.62,44.93,48.11,73.54,65.24,9.45-.53,19-1.51,28.34-2.9q-22.79-37.65-44-76.15c-9.53,3.34-60.67-4.87-58.49,8.26Z"/><path class="cls-5" d="M507,718.27c8.36,5.57,12.54,8.23,20.89,13.33,5.54.11,8.3.1,13.8,0,11,1,16.44,1.23,27.33,1.41-4.53-7.44-6.8-11.23-11.35-18.93A445.31,445.31,0,0,1,507,718.27Z"/><path class="cls-2" d="M152.51,336.78q23.15,54.56,47.12,108.75c25.91,18.89,91.83,88.22,119.53,104.34C306.71,518.2,255,434.79,242.9,403q-28.08-32.19-56-64.51C175.27,338.45,164.09,337.9,152.51,336.78Z"/><path class="cls-6" d="M186.9,338.45q20.72,37.8,41.62,75.51c29.9,21.73,60.41,42.39,92.21,61.21C288.88,428.67,258,381.49,227.67,334A387.26,387.26,0,0,1,186.9,338.45Z"/><path class="cls-7" d="M212.47,357.87C238.27,396,273.66,425.58,300.32,463c8.18,5.06,12.27,7.5,20.41,12.18C288.88,428.67,258,381.49,227.67,334,221,340.88,219.87,351.68,212.47,357.87Z"/><path class="cls-8" d="M204.7,440c14.63,2.37,29.52,2.24,44.24.86-10.87-17.24-22.2-34.18-33.12-51.39-30.22-58.67-32.4-17.43-50.81-20.72C178.35,392.48,191.51,416.27,204.7,440Z"/><path class="cls-9" d="M134.54,334.15c22.52,36.57,44.73,73.53,65.09,111.38Q193,392,186.9,338.45A259,259,0,0,1,134.54,334.15Z"/><path class="cls-10" d="M199.63,445.53c16.39,33.69,72.37,119,89,152.57,12.55-14.57,21.8-31.17,30.57-48.23C291.46,533.75,225.54,464.42,199.63,445.53Z"/><path class="cls-11" d="M319.16,549.87c29.35,46.5,57.41,93.21,94.73,133.67-46.25-21.31-87.82-51-125.3-85.44C301.14,583.53,310.39,566.93,319.16,549.87Z"/><path class="cls-12" d="M288.59,598.1c60.74,73,138.24,135.94,226,172.48q-6.57,16.09-13.45,32C417.59,751.32,345.6,677.8,288.59,598.1Z"/><path class="cls-13" d="M288.59,598.1c37.48,34.48,79.05,64.13,125.3,85.44,31.51,31.59,64.7,60.75,100.68,87C426.83,734,349.33,671.15,288.59,598.1Z"/><path class="cls-13" d="M501.12,802.59q6.88-15.95,13.45-32a690.51,690.51,0,0,0,111.49,60.65C583.2,826.18,541.85,817.06,501.12,802.59Z"/><path class="cls-10" d="M566.84,802.34a610.1,610.1,0,0,0,59.22,28.89c22.52-5.43,45.53-11,67.15-19.54,23.27-9.16,44.19-24.23,64.85-38.24-31.27,13.33-60,24-94,27.45A565.07,565.07,0,0,1,566.84,802.34Z"/><path class="cls-14" d="M702.46,807.68c18.7-11,37.65-22,55.6-34.23q16.31,5.34,32.58,10.76C761.7,793.13,731.92,800.68,702.46,807.68Z"/><path class="cls-11" d="M702.46,807.68c57-4.55,114.48-11.91,171.17-19.61-27.07-2-54.16-3.28-81.28-4.4C762.85,792.8,732.5,800.54,702.46,807.68Z"/><path class="cls-15" d="M930.41,770.92l8.7.86c0-3.85-7.14-18-7.31-18.45l-8.13,2.75C925.79,759.28,928.3,767.69,930.41,770.92Z"/><path class="cls-8" d="M483.56,701.77a907.91,907.91,0,0,0,79.53,64.17,553.18,553.18,0,0,0,65.43-7.4,617.15,617.15,0,0,1-88-22.68C521,725.28,504.22,708.28,483.56,701.77Z"/><path class="cls-4" d="M540.51,735.86c9.47-.51,19-1.48,28.41-2.87,19.58,9.3,39.38,17.78,59.6,25.55A617.15,617.15,0,0,1,540.51,735.86Z"/><path class="cls-5" d="M468.76,668.73c.28,2.52.55,4.9.73,5.81a488,488,0,0,0,76.89,20c-7.5-13-15.18-26.06-21.84-39.52C506.12,662.23,488.38,666,468.76,668.73Z"/><path class="cls-16" d="M563.09,765.94a553.18,553.18,0,0,0,65.43-7.4q27.86,12.09,56.3,22.48C643.64,779.76,603.29,775.15,563.09,765.94Z"/><path class="cls-17" d="M628.52,758.54q27.86,12.09,56.3,22.48c34.12-4.6,67.65-20.68,99.21-34.1-25.28,6.06-50.66,11.63-76.37,15.53C681.44,766.43,654.63,762.08,628.52,758.54Z"/><path class="cls-4" d="M688.09,764.56c32.59-2.31,64.79-10.14,96.5-17.81q-20.43-11.41-40.69-23.13C725.86,738.08,707.72,752.35,688.09,764.56Z"/><path class="cls-4" d="M820.87,738.66q20.19,3.86,40.29,8c15.55-16,30.65-32.35,45.48-49-30.06,8.75-60.19,17.07-90.55,24.7C818,728.89,819,732.15,820.87,738.66Z"/><path class="cls-5" d="M822.68,738c5.7,1.12,17-5.46,22.76-4.33l-8.89-16.57c-7.47,1.9-11.2,2.83-18.65,4.62C819.83,728.22,820.78,731.47,822.68,738Z"/><path class="cls-18" d="M861.16,746.7c15.55-16,30.65-32.35,45.48-49,8.59,12.66,16.86,25.52,25,38.49Q896.41,741.46,861.16,746.7Z"/><path class="cls-19" d="M914.75,709.81q8.65,13,16.89,26.35,53-23.16,104.27-50C995.61,694.55,955.21,702.33,914.75,709.81Z"/><path class="cls-20" d="M723.15,748.56c-21.16-9.06-40.7-18.9-60.08-31.47,26.63-3.48,51.16-13.08,76-23.06C734,712.28,728.78,730.48,723.15,748.56Z"/><path class="cls-21" d="M731.29,721.74q-20.65-4-40.91-9.8C706.83,706.48,723,700.5,739.09,694Q735.36,707.94,731.29,721.74Z"/><path class="cls-22" d="M723.15,748.56c5.63-18.08,10.87-36.28,15.94-54.53,13.75-8.17,19.6-1,33-9.71,3.42,3.78,55.82,28.4,55.82,28.4A1075.66,1075.66,0,0,1,723.15,748.56Z"/><path class="cls-23" d="M731.29,721.74q4.07-13.8,7.8-27.71c13.75-8.17,11.45-5.8,24.89-14.48l46.26,24.83C782,712,760,716.54,731.29,721.74Z"/><path class="cls-2" d="M227.67,334c35.9,56.13,112,163.46,150.21,218a274.63,274.63,0,0,0,40.74-10.87c-3.54-21.39-46.58-94.44-50.14-115.82-43.21-38-83.94-78.63-124-120-3,11-4.51,16.39-7.7,26.79C233.18,332.9,231.35,333.28,227.67,334Z"/><path class="cls-12" d="M418.62,541.1c31.51,34.84,64.29,68.13,100.39,98.14-40.42-51.71-116-158.09-150.53-214C372,446.66,415.08,519.71,418.62,541.1Z"/><path class="cls-13" d="M377.88,552c43.85,34.56,89.61,65.63,141.13,87.27-36.1-30-68.88-63.3-100.39-98.14A274.63,274.63,0,0,1,377.88,552Z"/><path class="cls-24" d="M377.88,552c26.93,38.08,55,86.94,90.95,117,35.19.35,68.34-4.88,102-15.28-17.92-3.13-34.67-8.27-51.78-14.47C467.49,617.6,421.73,586.53,377.88,552Z"/><path class="cls-13" d="M468.83,669c62.27,21.57,124.86,27.72,190.23,21.11a791.21,791.21,0,0,1-88.27-36.39C537.17,664.11,504,669.34,468.83,669Z"/><path class="cls-24" d="M659.06,690.1c48.09,3.95,97-8.31,143.15-21-36.7-4.12-72.59-10.39-107.94-21.39a263.59,263.59,0,0,1-42.71,6.7Q655.34,672.27,659.06,690.1Z"/><path class="cls-16" d="M733.08,711.29c23.6-13.18,46.54-27.27,69.13-42.15-46.11,12.65-95.06,24.91-143.15,21C683.07,700.4,707.48,706.38,733.08,711.29Z"/><path class="cls-8" d="M733.08,711.29c28.59-4.44,56.72-10.4,84.82-17.29,27.6-17.64,54.5-36.22,81-55.53-32,11.18-64.07,21.61-96.67,30.67C779.62,684,756.68,698.11,733.08,711.29Z"/><path class="cls-2" d="M817.9,694c36.88-9.51,73.38-20.32,109.71-31.79q-14.22-12.08-28.73-23.74C872.4,657.78,845.5,676.36,817.9,694Z"/><path class="cls-12" d="M927.61,662.21c58.52-38.85,113.17-82.06,174.63-116.1-70.86,23.8-135.32,61.43-203.36,92.36Q913.42,650.17,927.61,662.21Z"/><path class="cls-25" d="M1021.48,596.78c31.37-3.2,60.41-.76,91.74,2.12q-5.29-26.45-11-52.79C1073.91,561.82,1047.54,577.42,1021.48,596.78Z"/><path class="cls-24" d="M1113.22,598.9c41.74-15.74,83.49-31.37,126.06-44.69-45.61-4.14-91.28-6.67-137-8.1Q1107.93,572.46,1113.22,598.9Z"/><path class="cls-13" d="M1164.3,580c48.3-3.23,96.55-5.63,145-4.65q-34.82-11.15-70-21.15C1214,562.13,1189.12,570.85,1164.3,580Z"/><path class="cls-26" d="M1309.25,575.36c26.48-9.92,52.84-17.51,80.72-22.12-35.27,1.06-69.32,6.59-103.58,15C1295.49,571,1300.06,572.45,1309.25,575.36Z"/><path class="cls-18" d="M1332.06,558.66c-22.43.1-44.67,1.21-67,3.11,8.5,2.54,12.77,3.83,21.35,6.47C1301.55,564.57,1316.71,561.38,1332.06,558.66Z"/><path class="cls-13" d="M294.51,371.55q4.28-15.36,8-30.89-20.86-20.94-41.27-42.3Q277.68,335,294.51,371.55Z"/><path class="cls-8" d="M272,427.72c6.06-8.65,11.73-17.75,16.92-27a272,272,0,0,0,29.2-12.9,559.74,559.74,0,0,1-83.45-18.54c-1.57,5.57-2.37,8.3-4,13.64Q251.17,405.5,272,427.72Z"/><path class="cls-13" d="M234.67,369.33q26.82,16.29,54.25,31.44a272,272,0,0,0,29.2-12.9A559.74,559.74,0,0,1,234.67,369.33Z"/><path class="cls-2" d="M337.29,409.25q-9.71-10.59-19.17-21.38a272,272,0,0,1-29.2,12.9c-5.19,9.2-10.86,18.3-16.92,27A322.77,322.77,0,0,0,337.29,409.25Z"/><path class="cls-27" d="M234.64,418.28c9.31,12.89,18,26.22,27.39,39,14.26,23.11,68.1,97.82,82.58,120.78,5.62-17-28.72-85.69-23.88-102.9-28-16.55-54.93-34.49-81.38-53.44"/><path class="cls-28" d="M320.73,475.17c-4.84,17.21,29.5,85.93,23.88,102.9q16,27.79,32.22,55.44C371.24,598,326.21,510.74,320.73,475.17Z"/><path class="cls-29" d="M320.73,475.17c26.6,32.71,98,145.92,126.85,176.62a358.74,358.74,0,0,1-70.75-18.28C372.79,607.8,323.15,504.43,320.73,475.17Z"/><path class="cls-30" d="M376.83,633.51a358.74,358.74,0,0,0,70.75,18.28c24,28.21,55.87,50.11,86.14,71a409.94,409.94,0,0,1-65.34-2.4C435.4,694.47,402.6,666.94,376.83,633.51Z"/><path class="cls-31" d="M474.85,679c19.81,17.24,38.78,30,58.87,43.85,43.62,4.25,86.21,1.9,129.35-5.73C597.67,716.25,535.3,704.49,474.85,679Z"/><path class="cls-7" d="M576.15,724.92a535.43,535.43,0,0,0,86.92-7.83c19.38,12.57,38.92,22.41,60.08,31.47C672.89,752.53,624,740.07,576.15,724.92Z"/><path class="cls-32" d="M723.15,748.56l98.53,4.57L828,712.72A1075.66,1075.66,0,0,1,723.15,748.56Z"/><polygon class="cls-33" points="827.95 712.72 857.26 764.56 821.68 753.13 827.95 712.72"/><path class="cls-34" d="M925,749.33,894.87,756s33.41,18,43.9,29.46C938.11,769.76,925,749.33,925,749.33Z"/><path class="cls-25" d="M651.56,654.45q3.78,17.82,7.5,35.65a791.21,791.21,0,0,1-88.27-36.39A543.06,543.06,0,0,0,651.56,654.45Z"/><path class="cls-26" d="M199.63,445.53a224,224,0,0,0,17.75-23.81q-.81-16.11-1.56-32.21c-25.63-56.87-41.64-14.71-62-23.55C169.1,392.48,184.67,418.82,199.63,445.53Z"/><path class="cls-9" d="M234.67,369.33a559.74,559.74,0,0,0,83.45,18.54q-.75-48-2.34-96.08c-4.93,1.2-7.4,1.77-12.38,2.82q-3.3,33.09-7.34,66.08a470.23,470.23,0,0,1-58.5-1.95C236.42,363,235.85,365.15,234.67,369.33Z"/><path class="cls-35" d="M258.8,370c15.67,1.36,31.18,2,46.91,2-3.86-4.49-5.78-6.75-9.62-11.28-12,.37-23.84.37-35.85,0C259.68,364.41,259.39,366.27,258.8,370Z"/><path class="cls-2" d="M374.37,191.06a990.29,990.29,0,0,0,93.15,48.68c7.89,25.65,55.29,103,63.22,128.58-27-7.84-92.72-68.93-118.69-79.79q-23.66-30.13-46.35-61Q370.22,209.33,374.37,191.06Z"/><path class="cls-6" d="M365.7,227.54c19.56,15.5,39.41,30.52,59.75,45q19.46,46.41,39.64,92.48c-39.36-28.36-76-59.92-111.33-93.19C358,257.11,361.91,242.35,365.7,227.54Z"/><path class="cls-7" d="M357.2,259.66c31.69,30.09,64.37,58.82,99.1,85.3,3.52,8.08,5.28,12.08,8.79,20-39.36-28.36-76-59.92-111.33-93.19C355.15,267,355.84,264.53,357.2,259.66Z"/><path class="cls-8" d="M397.06,251q-5.24,25.2-11.23,50.21c-13.88-12.84-27.47-26-41-39.21q4.73-23.85,8.76-47.82C367.93,226.59,382.34,239,397.06,251Z"/><path class="cls-9" d="M370.6,105.76c32.37,44.62,64.47,89.43,96.92,134q-51-5.12-101.82-12.2C372.59,187.61,364.67,145.86,370.6,105.76Z"/><path class="cls-10" d="M467.52,239.74c27.05,12.62,93.88,75.25,122.26,84.42-19.34,15.2-39,30-59,44.16C522.81,342.69,475.41,265.39,467.52,239.74Z"/><path class="cls-11" d="M530.74,368.32c37.42,21.38,75.17,40.62,118.07,46.81-21.07-29.49-40.66-59.69-59-91C570.44,339.36,550.82,354.12,530.74,368.32Z"/><path class="cls-12" d="M589.78,324.16A372.27,372.27,0,0,0,769.3,412.67q19.63-23.44,39.33-46.84C733.81,374.26,654.92,364.64,589.78,324.16Z"/><path class="cls-13" d="M589.78,324.16c18.37,31.28,38,61.48,59,91,40.56,5.24,80.15,4.05,120.49-2.46A372.27,372.27,0,0,1,589.78,324.16Z"/><path class="cls-13" d="M808.63,365.83q-19.7,23.39-39.33,46.84c46-8.87,89.92-23.61,133.38-41.13A496.7,496.7,0,0,1,808.63,365.83Z"/><path class="cls-10" d="M829.57,397.64c24.54-7.92,49.19-16.42,73.11-26.1q18.63,31.72,35.88,64.19C901.43,425.74,864.69,413.51,829.57,397.64Z"/><path class="cls-14" d="M923.61,408.15c5.08,9.12,9.44,18,14.95,27.58Q963.27,419.82,988,404C966.6,405.66,945.07,407.18,923.61,408.15Z"/><path class="cls-11" d="M923.61,408.15c54.65-15.76,108.33-34.83,163.37-49.24-33.27,13.59-65.5,29-97.69,45C967.45,405.59,945.5,407.16,923.61,408.15Z"/><path class="cls-15" d="M1041.23,371.84c3.08-1,4.63-1.38,7.74-2.24-4.62,4.87-6.4,6.79-11,11.94-4.75,1.22-7.12,1.84-11.85,3.08C1032.37,379.21,1035,377.17,1041.23,371.84Z"/><path class="cls-3" d="M1032.06,383c18-8.71,36.39-16.56,54.92-24.13,14.77,3.12,29,6.29,43.31,11.34C1097.23,372.34,1064.65,377.16,1032.06,383Z"/><path class="cls-2" d="M1106.87,363.37c9.31,2.44,15.16,4,23.42,6.88a434.93,434.93,0,0,1,87.9-41.38A627.75,627.75,0,0,0,1106.87,363.37Z"/><path class="cls-8" d="M675.06,463.62c36.15-2.4,70.85-9.1,105.64-19.2q12.87,15.75,26,31.28a448.14,448.14,0,0,1-73.09-7.3A398.53,398.53,0,0,1,675.06,463.62Z"/><path class="cls-4" d="M733.59,468.4c3.54,7.36,5.3,11,8.78,18.2a573.66,573.66,0,0,0,64.31-10.9A448.14,448.14,0,0,1,733.59,468.4Z"/><path class="cls-4" d="M632.33,453.14A393.32,393.32,0,0,0,733.59,468.4c3.54,7.36,5.3,11,8.78,18.2C708,505.48,672.13,524.37,634,533.76Q633.62,493.44,632.33,453.14Z"/><path class="cls-5" d="M633.07,479.42c-.11-4.47-.27-10.66-.27-10.66,15.13,13.78,37.45,33.94,53.67,46.4-17.29,7.68-34.31,14.58-52.48,19.15C633.84,516.15,633.44,497.57,633.07,479.42Z"/><path class="cls-5" d="M693.43,462c7.15-.55,21.46-2.82,21.46-2.82,1.87,3.81,6.07,14.1,8.07,17.49,5.44,5.44,8.1,8,13.51,13.14-9.87,5.33-18.48,10.49-27.87,14.78C704.11,492.3,697.94,474.33,693.43,462Z"/><path class="cls-16" d="M780.7,444.42q12.87,15.75,26,31.28c22.68-7.66,44.91-16.29,67-25.63A495.12,495.12,0,0,1,780.7,444.42Z"/><path class="cls-17" d="M806.68,475.7c22.68-7.66,44.91-16.29,67-25.63,20.91,4,41.89,7.08,63,10C893.48,468.55,850.71,475.24,806.68,475.7Z"/><path class="cls-4" d="M855.29,472.84c27.41-3.26,54.7-7.48,81.77-12.83-23.62,17.3-31.14,17.74-55.14,34.5Z"/><path class="cls-4" d="M969.91,450.86c18.77-11.6,37.51-23.26,56.39-34.68q1.71,17.44,3.25,34.88c-27.76,8.32-55.46,16.84-83.24,25.1Q958.1,463.5,969.91,450.86Z"/><path class="cls-5" d="M969.91,450.86l19.91-12.31q-13.35,16.21-26.45,32.63c-6.84,2-10.26,3-17.06,5Q958.1,463.5,969.91,450.86Z"/><path class="cls-18" d="M1026.3,416.18q1.71,17.44,3.25,34.88c22.49-21,46.31-40.49,70.09-60C1074.86,398.56,1050.43,406.75,1026.3,416.18Z"/><path class="cls-19" d="M1052,430.78q23.71-20,47.66-39.74a718.53,718.53,0,0,1,82.33,3.61C1137.85,404,1094.75,416.49,1052,430.78Z"/><path class="cls-20" d="M871.65,485.61c-29.3,17.33-59,33.63-89.79,48.14,15.38,6.45,30.89,12.1,46.72,17.34Q850.25,518.45,871.65,485.61Z"/><path class="cls-21" d="M850.2,518.45c-17,7.85-34.19,15.45-51.66,22.28,9.87,3.79,19.94,7.23,30,10.36Q839.44,534.82,850.2,518.45Z"/><path class="cls-22" d="M871.65,485.61q-21.46,32.79-43.07,65.48,9.09,8.05,18.15,15.9c35.06-27.4,69.16-56,103.12-84.75C923.79,483.9,897.76,485.2,871.65,485.61Z"/><path class="cls-23" d="M850.2,518.45q-10.76,16.35-21.62,32.64,9.09,8.05,18.15,15.9c26.52-20.7,52.51-42,78.31-63.64C900.2,509,875.32,514.2,850.2,518.45Z"/><path class="cls-36" d="M1028.05,589.84c26.82-25.36,56-46.92,85.49-69q-28.9,5.83-57.69,12.21C1045.92,551.62,1037.13,570.82,1028.05,589.84Z"/><path class="cls-37" d="M1055.85,533c39.9-36.79,79.67-73.71,121.12-108.73-21.71,31.8-42.74,64-63.43,96.52Q1084.64,526.67,1055.85,533Z"/><path class="cls-7" d="M1103.93,489q25-15.71,50.3-30.82-11.14,16.85-22.12,33.79Q1118,490.32,1103.93,489Z"/><path class="cls-6" d="M1147.05,469c32.49-23.59,65.56-46,100.39-66-23.88,5.95-47.24,13.12-70.47,21.24Q1161.8,446.54,1147.05,469Z"/><path class="cls-38" d="M1205.89,414.74c11-7.38,22.35-14.73,33.55-21.75,3.2,4,4.8,6,8,10.08C1233.23,406.63,1219.72,410.44,1205.89,414.74Z"/><path class="cls-36" d="M1239.44,393c3.2,4,4.8,6,8,10.08,29.6-14.47,59.61-26.37,91.52-34.56C1304.66,372.81,1272,381.4,1239.44,393Z"/><path class="cls-2" d="M353.76,271.79c41.47,39,124.14,127.24,171.55,158.68-2.6,15.23-44.81-21.21-47.66-6a522.35,522.35,0,0,1-54,.05C389.74,380.62,358,335.21,327.28,289c7.45-9.06-8.8-20.79-.51-29.11C336.69,259.77,343.84,272,353.76,271.79Z"/><path class="cls-12" d="M477.65,424.45c32,24,104.66,96.74,141.19,112.94-56.2-9.54-146.35-83.68-195.16-112.89A522.35,522.35,0,0,0,477.65,424.45Z"/><path class="cls-13" d="M525.31,430.47c28.86,37.79,59.26,74,93.53,106.92-36.53-16.2-109.21-88.92-141.19-112.94C480.5,409.26,522.71,445.7,525.31,430.47Z"/><path class="cls-24" d="M525.31,430.47c34.17,20.19,69.32,36.89,107.22,48.6q10.53,43.62,20.67,87.34c-12.12-8.86-23.27-18.91-34.36-29C584.57,504.46,554.17,468.26,525.31,430.47Z"/><path class="cls-13" d="M632.53,479.07c35.78,33.35,74.07,61.94,117.11,85a416.54,416.54,0,0,1-96.44,2.32Q643.08,522.68,632.53,479.07Z"/><path class="cls-24" d="M749.64,564.09c41.45,2.37,82.43-2.05,123.34-8.52-44.21,22-89.11,41.46-136.59,55-9.85-3.49-19.66-7.48-29.14-11.88C721.7,587.55,735.77,576,749.64,564.09Z"/><path class="cls-16" d="M840.71,531.32q16.11,12.15,32.27,24.25c-40.91,6.47-81.89,10.89-123.34,8.52C780.91,555.51,810.94,544.18,840.71,531.32Z"/><path class="cls-8" d="M840.71,531.32c25.91-5,51.52-11,77.08-17.53q21,10.22,42,20.56c-28.83,7.56-57.69,14.82-86.79,21.22Q856.84,543.46,840.71,531.32Z"/><path class="cls-2" d="M917.79,513.79C952,503.68,986,492.84,1020,482.09q-30.19,26-60.18,52.26Q938.83,524,917.79,513.79Z"/><path class="cls-12" d="M1020,482.09c37.45,7.08,72,20.82,106.84,36-27.94-.43-57-2.1-84.72,1.49-27.51,3.56-55,9.89-82.3,14.73Q989.83,508.19,1020,482.09Z"/><path class="cls-25" d="M1077.69,498.14c37.57-15.15,75.31-29.72,113.79-42.36-22,20.29-43.5,41.16-64.69,62.35Q1102.4,507.68,1077.69,498.14Z"/><path class="cls-24" d="M1191.48,455.78A880.35,880.35,0,0,1,1293,469.65c-57.08,10.26-111.79,28.54-166.17,48.48C1148,496.94,1169.44,476.07,1191.48,455.78Z"/><path class="cls-13" d="M1232.65,460c55.13-10.2,109.59-13.63,165.12-4.55-35.91-.26-70.14,5-104.81,14.25C1272.94,465.69,1252.9,462.48,1232.65,460Z"/><path class="cls-26" d="M1397.77,455.4q26.67,18,52.24,37.41a578.92,578.92,0,0,0-87.12-36.27C1374.59,455.71,1386,455.34,1397.77,455.4Z"/><path class="cls-18" d="M1401.42,470.32a453.11,453.11,0,0,0-70.52-9.43,287.21,287.21,0,0,1,32-4.35C1375.9,460.82,1388.65,465.38,1401.42,470.32Z"/><path class="cls-9" d="M385.83,301.16c-.26,10.76-.41,16.12-.77,26.78-25-15.71-49.72-31.86-73.77-49,9.53-2.52,6.11-16.1,15.48-19.14,1.19-4,20,9.19,21.18,5.16C360.59,277,373.09,289.22,385.83,301.16Z"/><path class="cls-13" d="M385.06,327.94c-10.13,3.92-15.25,5.74-25.6,9q-16.33-23.85-32.18-48Q355.74,309.13,385.06,327.94Z"/><path class="cls-8" d="M359.46,337c-8.79,6.52-17.89,12.78-27.14,18.61q-7,16.31-14.3,32.4-1.84-47.79-4.4-95.54c5.5-1.31,8.23-2,13.66-3.49Q343.14,313.12,359.46,337Z"/><path class="cls-39" d="M335.86,410.82c8.57-24.41,16.35-49,23.6-73.85q28.59,44.8,58.82,88.45A530.87,530.87,0,0,1,335.86,410.82Z"/><path class="cls-13" d="M313.62,292.44q9.28,31.59,18.7,63.14-7,16.31-14.3,32.4Q316.18,340.19,313.62,292.44Z"/><path class="cls-2" d="M335.86,410.82q-9-11.34-17.84-22.84,7.37-16.12,14.3-32.4c9.25-5.83,18.35-12.09,27.14-18.61C352.21,361.81,344.43,386.41,335.86,410.82Z"/><path class="cls-27" d="M335.86,410.82q18.5,29.6,37.63,58.77c39.14,23.29,118.88,94.25,162.72,106.63-27.85-31.7-93.14-116.62-117.93-150.8A530.87,530.87,0,0,1,335.86,410.82Z"/><path class="cls-6" d="M418.28,425.42c24.79,34.18,90.08,119.1,117.93,150.8,28.19-5.9,81.73-28.79,81.73-28.79.16-2.32-40.63-13.6-58.93-20.36C523.8,514.05,449.66,446.27,418.28,425.42Z"/><path class="cls-28" d="M536.21,576.22c44.6,36.56,92.17,65.49,149.29,76.48a1169.57,1169.57,0,0,1-67.56-105.27A523.68,523.68,0,0,1,536.21,576.22Z"/><path class="cls-7" d="M617.94,547.43a434,434,0,0,0,71.76,51.69c-10.64,4.82-21.28,9.37-32.13,13.69C643.69,591.41,630.59,569.59,617.94,547.43Z"/><path class="cls-40" d="M689.7,599.12q-1.82,26.82-4.2,53.58Q671.19,633,657.57,612.81C668.42,608.49,679.06,603.94,689.7,599.12Z"/><path class="cls-36" d="M685.5,652.7c33.1,11,66.6,17.78,101.12,22.35q-10.85-28.42-22-56.74A662.06,662.06,0,0,1,685.5,652.7Z"/><path class="cls-37" d="M764.67,618.31q11.08,28.34,22,56.74c46.5-38.72,89.88-80.74,132.33-123.91C868.94,577,818.19,600.8,764.67,618.31Z"/><path class="cls-36" d="M786.62,675.05c44.7-23.77,87.39-50.65,129.26-79.18q1.67-22.36,3.07-44.73C876.5,594.31,833.12,636.33,786.62,675.05Z"/><path class="cls-41" d="M919,551.14q-1.4,22.36-3.07,44.73c37.39-2,74.77-4.28,112.17-6C992.19,575.43,955.71,563,919,551.14Z"/><path class="cls-37" d="M992.29,576.19c21-14.53,41.68-30,63.56-43.15-9.93,18.58-18.72,37.78-27.8,56.8Q1010.23,582.82,992.29,576.19Z"/><path class="cls-23" d="M689.7,599.12a447.67,447.67,0,0,0,75,19.19A662.06,662.06,0,0,1,685.5,652.7Q687.87,625.92,689.7,599.12Z"/><path class="cls-27" d="M425.45,272.5c10.55,10.79,21.17,21.5,32,32,17.78,11.72,75.31,74.39,94,84.55-15.4,9.67-70.47-32.81-86.4-24.06q-19.17-43.65-37.61-87.62"/><path class="cls-28" d="M465.09,365c15.93-8.75,71,33.73,86.4,24.06,14.93,6.28,30,11.9,45.32,17C566.16,412,496.28,363.88,465.09,365Z"/><path class="cls-29" d="M465.09,365c26.49,19.87,78.28,67.52,147.78,103.85q-7.95-31.4-16.06-62.74C574.56,410.36,486.94,361.68,465.09,365Z"/><path class="cls-30" d="M596.81,406.09q8.13,31.34,16.06,62.74c33.18,11,67.55,11.66,102.18,9.75q-9.62-22.71-19.16-45.45C660.82,429.29,628.46,422.09,596.81,406.09Z"/><path class="cls-31" d="M645.58,476.56c23.2,2.3,46.18,3.35,69.47,2a762.24,762.24,0,0,0,66.81,55.17C732.75,523.17,688.08,503.49,645.58,476.56Z"/><path class="cls-7" d="M737.17,498.66c14.51,12.2,29.28,24.06,44.69,35.09,30.78-14.51,60.49-30.81,89.79-48.14C827.08,495.69,782.88,501.15,737.17,498.66Z"/><path class="cls-32" d="M871.65,485.61c35.76-22,70.83-45.11,106-68-9.55,21.44-18.72,43-27.82,64.67C923.79,483.9,897.76,485.2,871.65,485.61Z"/><path class="cls-33" d="M949.85,482.24c32.92-41.33,65.9-82.91,102.29-121.23-25.58,17.79-50,37.23-74.47,56.56C968.12,439,959,460.61,949.85,482.24Z"/><path class="cls-42" d="M977.67,417.57c24.44-19.33,48.89-38.77,74.47-56.56a804,804,0,0,1,59.21-74.89C1060.82,324.52,1019,369.51,977.67,417.57Z"/><path class="cls-34" d="M1111.35,286.12c-8.8,9.89-17.35,19.88-25.78,30.1a806.54,806.54,0,0,1,80.77-42.32Q1138.68,279.34,1111.35,286.12Z"/><path class="cls-25" d="M707.25,598.74c14.45-11.19,28.52-22.74,42.39-34.65a416.54,416.54,0,0,1-96.44,2.32A590.74,590.74,0,0,0,707.25,598.74Z"/><path class="cls-26" d="M394.23,249.74l-23.8,37.81s-18.2-15.17-24.25-16.86c4.24-14.69,15.73-28.34,19.52-43.15C377,236.73,382.56,241.09,394.23,249.74Z"/><path class="cls-9" d="M313.62,292.44c1.49,27.29,2.85,54.58,3.87,81.89-27.95,1.11-55.65-1.62-83.56-2.84,1.42-5,4.35-18.42,5.71-23.56,1.62-4.16,20.18-23.2,20.18-23.2l43.45-30C307.43,293.89,309.5,293.42,313.62,292.44Z"/><path class="cls-35" d="M370.43,287.55,397.06,251l70.46-11.21L393.37,137.11c-7-9.66-22.42,77-22.42,77l-30,51.5Z"/><path class="cls-35" d="M370.43,287.55c-2.78,10.66-4.21,15.94-7.16,26.4-9.33-2.14-14-3.32-23.37-5.87-7,5.53-10.56,8.2-17.76,13.3-2.84-.93-7.09-2.37-7.09-2.37l-31.69,22.43L291.79,314s19.33-48,35-54.18c9.92-.07,17.07,12.12,27,12C360.4,278.19,363.74,281.34,370.43,287.55Z"/><path class="cls-5" d="M847.9,738.11c5.71,1.12,30.33,4,36.05,5.14l19.47-2.85L841,725.29Z"/><path class="cls-42" d="M836.92,728.58c7.61,13.19,20.34,36,20.34,36L925,749.33Z"/><path class="cls-43" d="M995.72,591.46l32.33-1.62s10.91-10,18.15-16.34c8-7,13.58-11.35,13.58-11.35l7.57-3.11L1029,593.52l-41.19,1.8Z"/><path class="cls-35" d="M270.53,382.76l-54.71,6.75-26.73,37.42c-3.75-6.37-29.84-51.77-33.6-58.06,0,0,101.12-59,136.3-54.85Z"/></g><g id="Layer_2" data-name="Layer 2"><polygon class="cls-12" points="136.09 200.05 224.61 157.54 291.22 253.68 233.21 256.42 136.09 200.05"/><polygon class="cls-44" points="233.21 256.42 136.09 200.05 85.66 271.09 85.66 271.09 239.22 273.46 233.21 256.42"/><polygon class="cls-10" points="228.62 301.55 239.22 273.46 85.66 271.09 105.48 318.03 184.31 318.13 251.25 350.95 228.62 301.55"/><polygon class="cls-8" points="105.48 318.03 19.2 329.07 25.5 428.98 60.36 460.5 114.92 461.67 140.45 382.59 105.48 318.03"/><polygon class="cls-18" points="60.36 460.5 25.5 428.98 65.69 434.01 114.92 461.67 60.36 460.5"/><polygon class="cls-11" points="139.4 155.36 131.78 130.57 70.55 202.54 136.09 200.05 139.4 155.36"/><polygon class="cls-10" points="203.04 126.41 203.04 126.41 198.93 108.88 188.9 94.4 131.78 130.57 139.4 155.36 136.09 200.05 224.61 157.54 203.04 126.41"/><polygon class="cls-16" points="85.66 271.09 136.09 200.05 70.55 202.54 43.89 250.68 19.2 329.07 105.48 318.03 85.66 271.09 85.66 271.09"/><polygon class="cls-45" points="433.77 222.55 377.12 205.14 372.43 265.79 433.77 222.55"/><polygon class="cls-12" points="291.38 91.42 224.73 157.46 291.34 253.59 313.47 199.07 313.47 199.07 385.49 69.16 291.38 91.42"/><polygon class="cls-4" points="400.66 98.97 313.47 199.07 377.12 205.14 400.66 98.97"/><polygon class="cls-44" points="385.49 69.16 400.66 98.97 313.47 199.07 385.49 69.16"/><polygon class="cls-46" points="418.95 142.81 377.12 205.14 433.77 222.55 418.95 142.81"/><polygon class="cls-47" points="418.95 142.81 400.66 98.97 377.12 205.14 418.95 142.81"/><polygon class="cls-44" points="508.06 182.31 451.04 96.84 400.66 98.97 418.95 142.81 433.77 222.55 502.3 210.22 508.06 182.31"/><polygon class="cls-11" points="579.52 112.97 539.3 65.46 539.3 65.46 521.83 89.62 508.06 182.31 502.3 210.22 553.55 186.58 574.8 157.46 579.52 112.97 579.52 112.97"/><polygon class="cls-48" points="387.39 29.21 315.04 35.87 291.38 91.42 385.49 69.16 387.39 29.21"/><polygon class="cls-11" points="233.89 64.05 248.83 79.49 291.38 91.42 315.04 35.87 233.89 64.05"/><polygon class="cls-49" points="477.79 38.93 387.39 29.21 385.49 69.16 400.66 98.97 451.04 96.84 508.06 182.31 521.83 89.62 539.3 65.46 477.79 38.93"/><polygon class="cls-50" points="477.79 38.93 385.49 69.16 400.66 98.97 451.04 96.84 521.83 89.62 539.3 65.46 477.79 38.93"/><polygon class="cls-48" points="291.38 91.42 248.83 79.49 233.89 64.05 189.02 94.31 199.05 108.8 203.16 126.32 203.16 126.32 224.73 157.46 291.38 91.42"/><polygon class="cls-24" points="313.12 274.91 291.22 253.68 224.61 157.54 233.21 256.42 228.62 301.55 251.25 350.95 295.67 323.19 345.08 292.76 345.1 292.71 313.21 274.96 313.12 274.91"/><polygon class="cls-44" points="377.12 205.14 313.47 199.07 224.73 157.46 291.34 253.59 313.23 274.82 313.25 274.93 345.15 292.68 345.2 292.68 372.43 265.79 377.12 205.14"/><polygon class="cls-51" points="313.12 274.91 291.22 253.68 224.61 157.54 233.21 256.42 228.62 301.55 251.25 350.95 313.21 274.96 313.12 274.91"/><polygon class="cls-52" points="377.12 205.14 313.47 199.07 224.73 157.46 291.34 253.59 313.23 274.82 313.25 274.93 377.12 205.14"/><polygon class="cls-2" points="105.48 318.03 140.45 382.59 186.88 396.42 182.87 337.89 184.31 318.13 105.48 318.03"/><polygon class="cls-4" points="184.31 318.13 105.48 318.03 140.45 382.59 114.92 461.67 152.3 448.97 186.88 396.42 251.25 350.95 184.31 318.13"/><polygon class="cls-12" points="136.09 200.05 224.61 157.54 291.22 253.68 233.21 256.42 136.09 200.05"/><polygon class="cls-44" points="233.21 256.42 136.09 200.05 85.66 271.09 85.66 271.09 239.22 273.46 233.21 256.42"/><polygon class="cls-10" points="228.62 301.55 239.22 273.46 85.66 271.09 105.48 318.03 184.31 318.13 251.25 350.95 228.62 301.55"/><polygon class="cls-8" points="105.48 318.03 19.2 329.07 25.5 428.98 60.36 460.5 114.92 461.67 140.45 382.59 105.48 318.03"/><polygon class="cls-18" points="60.36 460.5 25.5 428.98 65.69 434.01 114.92 461.67 60.36 460.5"/><polygon class="cls-11" points="139.4 155.36 131.78 130.57 70.55 202.54 136.09 200.05 139.4 155.36"/><polygon class="cls-10" points="203.04 126.41 203.04 126.41 198.93 108.88 188.9 94.4 131.78 130.57 139.4 155.36 136.09 200.05 224.61 157.54 203.04 126.41"/><polygon class="cls-16" points="85.66 271.09 136.09 200.05 70.55 202.54 43.89 250.68 19.2 329.07 105.48 318.03 85.66 271.09 85.66 271.09"/><polygon class="cls-45" points="433.77 222.55 377.12 205.14 372.43 265.79 433.77 222.55"/><polygon class="cls-12" points="291.38 91.42 224.73 157.46 291.34 253.59 313.47 199.07 313.47 199.07 385.49 69.16 291.38 91.42"/><polygon class="cls-4" points="400.66 98.97 313.47 199.07 377.12 205.14 400.66 98.97"/><polygon class="cls-44" points="385.49 69.16 400.66 98.97 313.47 199.07 385.49 69.16"/><polygon class="cls-46" points="418.95 142.81 377.12 205.14 433.77 222.55 418.95 142.81"/><polygon class="cls-47" points="418.95 142.81 400.66 98.97 377.12 205.14 418.95 142.81"/><polygon class="cls-44" points="508.06 182.31 451.04 96.84 400.66 98.97 418.95 142.81 433.77 222.55 502.3 210.22 508.06 182.31"/><polygon class="cls-11" points="579.52 112.97 539.3 65.46 539.3 65.46 521.83 89.62 508.06 182.31 502.3 210.22 553.55 186.58 574.8 157.46 579.52 112.97 579.52 112.97"/><polygon class="cls-48" points="387.39 29.21 315.04 35.87 291.38 91.42 385.49 69.16 387.39 29.21"/><polygon class="cls-11" points="233.89 64.05 248.83 79.49 291.38 91.42 315.04 35.87 233.89 64.05"/><polygon class="cls-49" points="477.79 38.93 387.39 29.21 385.49 69.16 400.66 98.97 451.04 96.84 508.06 182.31 521.83 89.62 539.3 65.46 477.79 38.93"/><polygon class="cls-50" points="477.79 38.93 385.49 69.16 400.66 98.97 451.04 96.84 521.83 89.62 539.3 65.46 477.79 38.93"/><polygon class="cls-48" points="291.38 91.42 248.83 79.49 233.89 64.05 189.02 94.31 199.05 108.8 203.16 126.32 203.16 126.32 224.73 157.46 291.38 91.42"/><polygon class="cls-24" points="313.12 274.91 291.22 253.68 224.61 157.54 233.21 256.42 228.62 301.55 251.25 350.95 295.67 323.19 345.08 292.76 345.1 292.71 313.21 274.96 313.12 274.91"/><polygon class="cls-44" points="377.12 205.14 313.47 199.07 224.73 157.46 291.34 253.59 313.23 274.82 313.25 274.93 345.15 292.68 345.2 292.68 372.43 265.79 377.12 205.14"/><polygon class="cls-51" points="313.12 274.91 291.22 253.68 224.61 157.54 233.21 256.42 228.62 301.55 251.25 350.95 313.21 274.96 313.12 274.91"/><polygon class="cls-52" points="377.12 205.14 313.47 199.07 224.73 157.46 291.34 253.59 313.23 274.82 313.25 274.93 377.12 205.14"/><polygon class="cls-2" points="105.48 318.03 140.45 382.59 186.88 396.42 182.87 337.89 184.31 318.13 105.48 318.03"/><polygon class="cls-4" points="184.31 318.13 105.48 318.03 140.45 382.59 114.92 461.67 152.3 448.97 186.88 396.42 251.25 350.95 184.31 318.13"/></g></g></svg>