<?xml version="1.0" encoding="UTF-8"?><svg id="a" xmlns="http://www.w3.org/2000/svg" width="560" height="560" viewBox="0 0 560 560"><path d="M472.22266,279.2583l-42.35742-.97412c.09277-2.23584.13574-4.479.12695-6.73926-.00488-.98682-.01953-1.96436-.04395-2.94629l24.79004-.95752c.54785-.021.97461-.48193.95312-1.0293-.02148-.54834-.53027-.97656-1.0293-.95312l-24.77539.95654c-.12988-3.40918-.37598-6.7915-.7334-10.1377l42.08301-5.84473c.54297-.07568.9209-.57666.8457-1.11963-.07422-.54199-.55957-.91797-1.11914-.84619l-42.03418,5.83838c-.38574-3.19336-.87207-6.34961-1.45898-9.47754l24.80664-4.50195c.53906-.09766.89746-.61426.7998-1.15332-.09863-.53906-.61523-.90186-1.15332-.79883l-24.83203,4.50635c-.7207-3.57764-1.57031-7.104-2.5459-10.5835l40.75488-12.90088c.52246-.16504.81152-.72266.64648-1.24512-.16504-.52197-.7207-.81348-1.24609-.64648l-40.7041,12.88477c-.91699-3.10596-1.93457-6.17432-3.04688-9.19189l23.33984-9.93408c.50391-.21484.73926-.79736.52441-1.30176-.21582-.50488-.79785-.73779-1.30176-.52441l-23.2627,9.90137c-1.40332-3.65527-2.94824-7.24023-4.62891-10.74951l37.83203-19.35547c.4873-.24951.68066-.84717.43066-1.33545-.24805-.48779-.84766-.68213-1.33496-.43115l-37.7959,19.33789c-1.50684-3.04053-3.11426-6.02148-4.82031-8.93945l21.28223-12.86572c.46875-.28369.61914-.89355.33496-1.3623-.28223-.46973-.8916-.62061-1.3623-.33594l-21.26758,12.85742c-1.79883-2.98438-3.70605-5.91016-5.70508-8.75195l33.88086-25.36182c.43848-.32861.52832-.9502.19922-1.38916-.32715-.43994-.9502-.52832-1.38867-.19971l-33.84375,25.33447c-2.08008-2.87354-4.26562-5.67725-6.54102-8.39062l18.13379-15.90332c.41211-.36133.45312-.98828.0918-1.40039-.36133-.4126-.98828-.45215-1.40039-.0918l-18.11133,15.8833c-2.24512-2.60498-4.5791-5.13184-6.99805-7.57373l29.76758-29.96436c.38574-.38867.38379-1.01709-.00488-1.40283-.38867-.38623-1.0166-.38477-1.40332.00439l-29.76562,29.96191c-2.61523-2.5708-5.33203-5.05127-8.13086-7.42334l16.44629-18.68359c.36133-.41162.32129-1.03857-.08984-1.40039-.40918-.36035-1.03711-.32275-1.40039.08887l-16.47949,18.72217c-2.59277-2.13867-5.2627-4.19238-8-6.15283l24.53516-34.74121c.31641-.44775.20898-1.06641-.23828-1.38281-.44824-.31592-1.06738-.20898-1.38281.23828l-24.53418,34.74072c-3.14648-2.19092-6.37695-4.25928-9.69434-6.20459l11.90918-21.68652c.26367-.48047.08789-1.0835-.39258-1.34717s-1.08398-.08789-1.34766.39209l-11.8877,21.64893c-3.0918-1.75732-6.26074-3.41113-9.48535-4.94629l4.1416-9.20361,13.59961-29c.23242-.49609.01855-1.08691-.47754-1.31982-.49609-.23389-1.08691-.01807-1.31934.47705l-13.60547,29.01416-4.13672,9.19141c-18.84473-8.66064-39.82715-13.44629-61.86426-13.37646-21.63379.09668-42.45703,4.76123-61.91602,13.86865l-17.47803-37.79248c-.22998-.49756-.81836-.71436-1.31689-.48486-.49756.22998-.71436.81934-.48486,1.31689l13.30078,28.80176,4.18896,9.01514c-3.28955,1.60742-6.48584,3.31055-9.57373,5.10107l-12.05566-20.9292c-.27393-.47461-.88037-.63818-1.35498-.36475-.4751.27344-.63818.88037-.36475,1.35498l12.06543,20.9458c-3.33594,1.99463-6.53955,4.0918-9.59033,6.27979l-23.90234-34.09033c-.31445-.44727-.93311-.55615-1.38232-.24268-.44824.31494-.55713.93359-.24268,1.38232l23.91846,34.11279c-2.68408,1.95215-5.31689,4.01221-7.88525,6.16895l-15.56885-18.09863c-.35596-.41553-.98438-.46289-1.39893-.10498-.41553.35693-.4624.9834-.10498,1.39893l15.56201,18.09131c-2.80566,2.42188-5.53174,4.96094-8.16162,7.60254l-29.34424-29.54004c-.38721-.38916-1.01514-.39014-1.40332-.00488-.38867.38623-.39062,1.01465-.00488,1.40332l29.36133,29.55713c-2.4082,2.4834-4.7085,5.01855-6.8916,7.59521l-17.32129-14.80615c-.41699-.35693-1.04248-.30615-1.39893.10986-.35596.4165-.30664,1.04248.10986,1.39893l17.33789,14.81982c-2.2959,2.78516-4.45361,5.61475-6.45947,8.47217l-33.74561-24.84521c-.44141-.32471-1.06201-.22949-1.38721.21045-.3252.44141-.23047,1.0625.21045,1.38721l33.78271,24.87207c-1.95703,2.7959-3.83105,5.71191-5.61279,8.73291l-20.36377-12.4502c-.46729-.28467-1.07861-.13721-1.36426.3291-.28564.46777-.13818,1.07812.3291,1.36426l20.40283,12.47314c-1.68457,2.9502-3.28174,5.99512-4.78418,9.12109l-37.25732-18.62842c-.49219-.24561-1.08643-.04688-1.33105.44336-.24512.49023-.04639,1.08643.44336,1.33105l37.30176,18.65088c-1.67236,3.63916-3.15625,7.19531-4.46582,10.70605l-22.2002-9.55518c-.50439-.21729-1.08643.01562-1.30322.51904-.2168.50293.01562,1.08691.51904,1.30322l22.30273,9.6001c-1.09863,3.07812-2.06494,6.12744-2.90771,9.17432l-39.91846-11.93604c-.52197-.15527-1.07715.1416-1.23486.6665-.15674.5249.1416,1.07764.6665,1.23486l39.97021,11.95166c-.9585,3.63525-1.76709,7.14941-2.43262,10.57471l-23.2793-4.15381c-.54492-.09961-1.05518.26318-1.15088.80225-.09619.53955.2627,1.05469.80225,1.15088l23.2627,4.15088c-.58643,3.25391-1.04199,6.43213-1.37305,9.56494l-41.08203-5.57568c-.54248-.06885-1.04297.30664-1.1167.8501-.07324.54297.30713,1.04297.8501,1.11621l41.1377,5.5835c-.33154,3.08691-.54248,6.42529-.63721,10.09961l-23.51807-1.15674c-.55518-.04541-1.01318.39404-1.03955.94189-.02734.54736.39453,1.0127.94189,1.03955l23.57568,1.15967c-.0127.89648-.01904,1.81299-.01904,2.74951,0,2.31641.05566,4.62842.16699,6.93652l-41.30322,1.17139c-.54736.01562-.979.47266-.96338,1.02051.01514.54785.44385.97852,1.02002.96387l41.35596-1.17383c.22852,3.68555.59912,7.35938,1.11035,11.0166l-23.71436,2.87988c-.54395.06641-.93115.56055-.86523,1.10449.06543.54492.5625.92578,1.10449.86621l23.76367-2.88672c.46924,3.04785,1.03662,6.08203,1.70166,9.10449l-40.97119,7.82227c-.53809.10254-.89111.62207-.78857,1.16113.10303.53711.61963.8916,1.16064.78809l41.03906-7.83594c.78369,3.34277,1.68701,6.66699,2.70996,9.9707l-22.81592,6.73926c-.52539.15527-.82568.70703-.67041,1.23242.15576.52539.70898.82812,1.23291.66992l22.85303-6.75c1.00244,3.0918,2.11035,6.16602,3.32227,9.2168l-38.61523,14.95703c-.51074.19727-.76465.77246-.56689,1.2832.19824.51172.77295.76562,1.28369.56641l38.64355-14.96777c1.26172,3.05859,2.62256,6.06543,4.07861,9.01562l-21.79834,10.12793c-.49707.23047-.71289.82031-.48193,1.31738.23145.49707.82227.71484,1.31787.48145l21.85254-10.15234c1.51416,2.9668,3.12549,5.875,4.83105,8.72168l-35.80322,20.97461c-.47266.27734-.63184.88477-.35449,1.3584.27637.4707.88379.62891,1.35742.35449l35.83203-20.99121c1.63525,2.64746,3.35303,5.23926,5.15137,7.77344l-19.57471,14.46387c-.44043.3252-.53369.94629-.20801,1.3877.32471.43945.9458.5332,1.38721.20801l19.55469-14.44824c2.05273,2.81152,4.20508,5.5498,6.45361,8.20898l-31.73193,26.37891c-.42139.34961-.479.97559-.12891,1.39648.3501.42188.97559.47949,1.39746.12891l31.75488-26.39746c1.93799,2.22949,3.94482,4.40234,6.01758,6.51562l-17.20459,17.01367c-.38965.38477-.39307,1.0127-.00781,1.40234.38525.38867,1.01318.39355,1.40332.00781l17.20801-17.0166c2.33594,2.31738,4.75684,4.56445,7.25244,6.72949l-27.69482,30.71777c-.36719.40625-.33447,1.03418.07227,1.40137.40771.36719,1.03467.33398,1.40137-.07324l27.729-30.75586c2.45166,2.07031,4.97607,4.06543,7.57129,5.9834l-14.34082,19.82812c-.32129.44336-.22168,1.06348.22217,1.38477.44482.32227,1.06445.22168,1.38525-.22266l14.33691-19.82227c.99463.71484,1.99854,1.41797,3.01318,2.11035,1.80225,1.22949,3.62646,2.41602,5.47266,3.55957l-22.06885,35.44629c-.28955.46484-.14746,1.07715.31787,1.36621.46436.28906,1.07666.14746,1.3667-.31738l22.07812-35.46094c3.1001,1.86328,6.25879,3.60742,9.46924,5.22949l-12.64893,21.91113c-.27393.47461-.11133,1.08105.36328,1.35547.47461.27344,1.08057.11133,1.35547-.36328l12.7002-22c.00342-.00684.00732-.0127.01074-.01953,3.13232,1.5293,6.30908,2.94238,9.53271,4.24023l-17.99707,37.45312c-.23779.49414-.02979,1.08691.46436,1.32422.49219.23535,1.08594.03027,1.32373-.46484l18.05957-37.58301c17.00635,6.57812,35.19531,9.90918,53.75146,9.8457,19.32812-.0957,37.78027-3.9248,54.68262-10.80078.00586.0127.01172.02637.01855.03906l18.90039,39.2002c.1709.35449.52539.56152.89453.56152.14453,0,.29102-.03125.42969-.09863.49414-.23828.70117-.83105.46289-1.32422l-18.87109-39.13965c3.10547-1.3125,6.1582-2.72852,9.15137-4.24414l12.97461,21.72363c.28027.46973.89062.62598,1.36035.34277.4707-.28125.62402-.88965.34277-1.36035l-12.91016-21.61523c2.94434-1.54102,5.83203-3.17969,8.65723-4.90918l22.96582,35.76953c.2959.46094.91016.59473,1.37109.29883s.59473-.91016.29883-1.37109l-22.95117-35.74512c2.8584-1.80371,5.64941-3.70215,8.37012-5.69141l15.16309,19.48145c.33789.43164.95996.51074,1.39258.17383s.50977-.95996.17383-1.39258l-15.13477-19.44531c2.58301-1.94141,5.09668-3.96289,7.54395-6.06543l28.36816,31.68262c.36621.4082.99414.44238,1.40137.07715.4082-.36523.44238-.99316.07715-1.40137l-28.34961-31.66211c2.46387-2.1748,4.84961-4.4248,7.16309-6.75684l17.96094,17.19727c.39551.37793,1.02344.36523,1.40332-.03027.37891-.39648.36523-1.02441-.03027-1.40332l-17.94531-17.18164c2.07129-2.14355,4.07617-4.34766,6.0166-6.61328l32.91602,26.78125c.4248.3457,1.0498.28027,1.39551-.14355.3457-.4248.28125-1.0498-.14355-1.39551l-32.8877-26.75781c2.21094-2.65234,4.32617-5.37891,6.34961-8.18262l20.8584,14.0332c.4541.30664,1.07129.18555,1.37695-.26953.30566-.4541.18555-1.07129-.26953-1.37695l-20.81445-14.00488c1.81348-2.58594,3.54395-5.22852,5.19238-7.93164l37.08105,20.9248c.47461.26855,1.08105.09961,1.35156-.37695.26953-.47656.10059-1.08203-.37695-1.35156l-37.0332-20.89844c1.66309-2.81055,3.2373-5.68555,4.71484-8.61133l23.00195,11.06836c.49414.23633,1.08691.02734,1.32422-.46387.2373-.49414.0293-1.08691-.46387-1.3252l-22.98047-11.05664c1.47168-3.01465,2.84082-6.08105,4.1084-9.20605l39.79395,14.88672c.51367.18848,1.08496-.06934,1.27734-.58203.19141-.51367-.06836-1.08496-.58203-1.27734l-39.75586-14.87109c1.1709-3.00098,2.24512-6.04883,3.2207-9.14062l24.21875,6.79688c.52734.14941,1.0752-.15918,1.22363-.68652.14844-.52832-.15918-1.07617-.68652-1.22363l-24.17188-6.78418c.9873-3.28613,1.86133-6.61133,2.62012-9.9873l41.60742,7.50293c.53711.09473,1.05469-.26074,1.15234-.80078.09668-.53906-.26074-1.05469-.80078-1.15234l-41.53613-7.49023c.63867-3.0332,1.18457-6.10352,1.63281-9.20117l24.80664,3.05176c.54199.07324,1.03809-.31934,1.10547-.86328s-.31934-1.03906-.86328-1.10547l-24.77734-3.04883c.47656-3.64258.82031-7.33008,1.02539-11.0498l42.4082.97559h.02246c.53809,0,.97949-.42969.99219-.96973.0127-.54736-.42188-1.00195-.96973-1.01416ZM376.11133,239.75c-.16602.19824-.28711.39453-.40137.5835l-.15723.20557c-5.89648,8.50635-15.63574,13.58496-26.05273,13.58496-8.55664,0-16.58105-3.32959-22.59473-9.375-5.96484-5.99707-9.22461-13.94775-9.17969-22.39893,0-17.52002,14.25391-31.77393,31.77441-31.77393s31.77441,14.25391,31.77441,31.77393c0,6.26807-1.78516,12.28125-5.16309,17.3999ZM313.99146,216.29089c-9.25623-4.99744-19.6701-7.63318-30.29126-7.63318-35.06494,0-63.59229,28.52734-63.59229,63.59229,0,11.59473,3.06494,22.77466,8.88165,32.49207l-.39679.4093-23.80194,23.92401c-12.09943-16.62329-18.50177-36.25751-18.50177-56.92548,0-53.38184,43.42871-96.81055,96.81055-96.81055,18.14594,0,35.67651,4.99994,50.92413,14.48767-10.3924,4.96472-18.04327,14.7627-20.03229,26.46387ZM230.42566,303.26068c-5.45563-9.30139-8.33337-19.9588-8.33337-31.01068,0-33.9707,27.63721-61.60791,61.60791-61.60791,10.29047,0,20.37866,2.5528,29.34515,7.39319l-82.61969,85.2254ZM231.62646,308.12988l81.86475-84.43896c.28711,9.07471,3.9502,17.57275,10.40039,24.05664,5.573,5.60291,12.66858,9.14478,20.36981,10.25226,1.09894,4.78534,1.63702,9.46869,1.63702,14.25018,0,34.24121-27.85742,62.09766-62.09863,62.09766-14.84277,0-29.25244-5.31934-40.57422-14.97949l-.35614.41754-.05646-.05035-53.50195,60.01855-14.5083-14.50781,56.82373-57.11621ZM283.19531,417.55762c-.24414.00098-.48438.00195-.72754.00195-18.42383-.00098-36.2085-3.41211-52.64307-9.76172-.0957-.14258-.229-.2627-.39502-.34277-.21436-.10352-.44629-.12402-.66113-.07031-7.42578-2.93652-14.58008-6.47949-21.37988-10.57617-.0791-.15918-.20166-.2998-.36426-.40039-.16895-.10645-.36377-.16113-.54248-.15039-3.13623-1.9209-6.19873-3.96191-9.17822-6.11816-.06885-.15234-.17725-.28906-.32227-.39355-.14307-.10352-.30469-.16309-.46826-.18262-2.05927-1.51105-4.06586-3.09674-6.04449-4.71741l30.36609-34.06494c17.6413,13.99036,39.67249,21.69446,62.26483,21.69446,1.99658,0,3.97803-.06549,5.94611-.18109l21.28448,42.56903c-8.79199,1.71179-17.85834,2.64844-27.13489,2.69409ZM303.17383,370.75098l20.4397,40.88031c-3.05359.90149-6.15027,1.70038-9.28333,2.40289l.27136-.13574-20.96094-41.92188,9.5332-1.22559ZM427.85938,278.72266c-.0918.14648-.14648.31885-.15137.50439-.00391.16797.03418.32666.10449.4668-.20508,3.95166-.56738,7.86279-1.08398,11.72607-.16699.1543-.2832.36621-.3125.60938-.0293.23242.02539.45703.13965.6416-.47461,3.33203-1.06152,6.62305-1.75879,9.87891-.1377.1377-.23633.31738-.27344.52441-.03223.18066-.01367.35938.0459.51953-.80273,3.61426-1.74219,7.18945-2.80957,10.69824-.14648.12402-.25879.29102-.31445.48926-.05078.18164-.04785.36523-.00098.53418-1.03418,3.31152-2.18262,6.57031-3.44238,9.77637-.19141.11133-.34766.28711-.43164.51074-.07812.20996-.08105.42969-.02148.62891-1.38477,3.4375-2.89355,6.80078-4.52734,10.10352-.04492.05664-.08301.11816-.11621.18457-.02832.05957-.0498.12012-.06641.18164-1.61816,3.24902-3.34961,6.41895-5.19824,9.52441-.20605.08008-.3877.22949-.50488.4375-.10742.19043-.14551.40137-.12109.60352-1.79785,2.96484-3.69824,5.8584-5.69727,8.68066-.0918.06641-.17285.14941-.24023.24902-.05664.08398-.09863.17383-.12598.26562-2.19434,3.06836-4.50391,6.04785-6.92383,8.93359-.18848.05371-.36328.16406-.49707.32812-.125.15332-.19629.33398-.2168.5166-2.08398,2.44824-4.25,4.82812-6.48926,7.13281-.19922.03613-.38965.13281-.54102.29004-.14551.15234-.23242.33789-.26367.53125-2.4873,2.52051-5.06641,4.95117-7.73047,7.28613-.16309.03516-.31836.1123-.45117.23047-.125.1123-.21484.24902-.26953.39648-2.68945,2.32617-5.46289,4.55469-8.31836,6.68262-.12695.03223-.24902.0918-.35938.17676-.09668.0752-.17578.16504-.23633.26465-3.05469,2.25098-6.20117,4.3877-9.43066,6.40039-.05469.02246-.1084.0498-.16016.08301-.04297.02734-.08301.05859-.12109.09082-9.70642,6.01831-20.17151,10.92462-31.21442,14.54669l-20.41803-40.83691c43.66199-10.85992,76.11584-50.39105,76.11584-97.36554,0-10.12762-1.46405-19.95789-4.3186-29.25989.10541-.14355.19952-.28595.28247-.42371l.17871-.2373c2.1377-3.20557,3.72266-6.71973,4.71777-10.42139l31.49023-8.39795-30.7666-7.16113c-2.90723-16.96875-17.72363-29.92432-35.50977-29.92432-4.34766,0-8.51459.78137-12.37689,2.19897-16.06433-10.43805-34.70276-15.96216-54.0235-15.96216-54.91357,0-99.58887,44.67529-99.58887,99.58887,0,21.41034,6.67798,41.74316,19.29608,58.91968l-32.922,33.09082c-4.09064-5.03973-7.88525-10.36609-11.30865-15.99048-.02051-.11035-.06006-.21875-.12012-.32227-.06494-.11133-.14893-.20508-.24463-.28027-3.91602-6.50391-7.36426-13.37891-10.29199-20.59082-7.11816-17.53711-10.72705-35.81543-10.72705-54.32666,0-5.95166.25928-11.04932.79492-15.60352.73438-7.52734,2.19678-15.29248,4.4707-23.73926,2.02002-7.52686,4.7959-15.05371,8.48242-22.99609.05713-.06396.10693-.13672.14697-.21729.04834-.09668.07959-.19727.09473-.29883,3.5332-7.44482,7.6123-14.43164,12.13379-20.78125,4.49023-6.49561,9.76953-12.84375,15.69141-18.86865,5.82812-5.92773,12.14355-11.34082,18.77734-16.09326,6.71338-4.89111,14.18994-9.33105,22.21973-13.19531.00439-.00244.00928-.00439.01367-.00635.01172-.00537.02295-.01123.03418-.01709,19.44189-9.25342,40.28467-13.99414,61.95166-14.09082.18555-.00098.3623-.00098.54785-.00098,57.36426,0,107.16797,33.46191,130.81641,81.95117.01367.03711.03027.07373.04883.10938.01172.02441.02539.04736.03906.07031,3.57324,7.35156,6.54492,15.04346,8.85254,23.02002.00293.08545.01855.17188.04492.25732.02148.06787.0498.13184.08398.19141,1.09082,3.81641,2.0293,7.69922,2.80859,11.63574-.04102.14209-.0498.29541-.02246.45068.03027.16406.09863.31104.19531.43408.65137,3.40674,1.18555,6.85791,1.59473,10.34375-.08789.17383-.125.37451-.0957.58154.02637.18896.10449.35889.21777.49561.39453,3.59375.65918,7.23877.78613,10.90576-.0791.14893-.12012.31982-.11328.5.00684.17529.05859.33838.14355.47803.03125,1.12354.0498,2.25732.05566,3.3877.00879,2.40527-.04102,4.79053-.14844,7.16895Z" fill="#e95420"/><path d="M506.82227,256.47217c-3.42871-44.91895-21.08105-89.06982-49.79102-124.53516,4.2627-3.72266,6.96094-9.1958,6.96094-15.28711,0-11.18896-9.10254-20.29199-20.29199-20.29199-5.93848,0-11.28809,2.56348-15.00195,6.64209-28.56348-24.25342-66.04492-41.72021-105.81055-49.33154-.3125-20.46045-17.05371-37.01074-37.58789-37.01074-20.09814,0-36.56299,15.85303-37.54541,35.71191-.09521-.01416-.1958-.01611-.29541-.00146-43.47217,6.25098-81.13574,24.62744-115.12354,56.17285-1.89941-1.61035-4.35645-2.58301-7.03564-2.58301-6.00586,0-10.89209,4.88623-10.89209,10.89209,0,2.72607,1.00635,5.22119,2.66748,7.1333-21.1543,23.57764-37.30518,51.80762-46.77441,81.73779-1.31836-.30322-2.69141-.46338-4.10059-.46338-10.08643,0-18.29248,8.20557-18.29248,18.30225.09033,8.67041,6.17383,15.95068,14.2251,17.81787-1.54297,10.42139-2.3252,21.20898-2.3252,32.07227,0,38.125,9.70996,75.69043,28.09033,108.7041-4.26807,3.18066-6.79004,8.08594-6.79004,13.2959,0,9.09375,7.39844,16.49219,16.49219,16.49219,3.25586,0,6.29395-.94824,8.85352-2.58301,17.8335,23.19922,37.92383,41.96582,59.72754,55.79102,23.50458,14.9032,49.82153,24.58618,78.22455,28.79358,2.14569,18.75317,17.90295,32.79822,36.99469,32.79822,18.29993,0,33.74652-13.28009,36.87878-30.97504,37.04657-6.94623,77.36957-25.16919,105.6261-47.70856,3.81738,5.45898,9.97266,8.68359,16.68555,8.68359.06445.00098.12793.00098.19336.00098,5.36816,0,10.40527-2.06445,14.20117-5.82617,3.87402-3.83789,6.00684-8.97559,6.00684-14.4668,0-6.36035-2.98926-12.31152-8.06152-16.18652,33.04785-37.95605,52.50391-86.38867,54.83496-136.51074,6.81543-.7793,12.12695-6.58301,12.12695-13.60303,0-7.34082-5.80762-13.35107-13.07031-13.67773ZM443.7002,98.34229c10.09473,0,18.30762,8.21289,18.30762,18.30762v.00006h-36.61523v-.00006c0-10.09473,8.21289-18.30762,18.30762-18.30762ZM285.2998,18.64209c19.21875,0,34.93066,15.30469,35.58691,34.36621-15.53613-15.77344-34.92969-16.15137-36.67578-16.15137-.0752,0-.11719.00098-.12598.00098-17.03027.24561-29.74268,10.09619-34.24463,14.13135,1.65137-18.1123,16.92432-32.34717,35.45947-32.34717ZM272.68457,67.66211c.5752.58154,1.18408,1.11816,1.82178,1.6084-7.44092-2.37891-17.55811-7.03467-24.38818-15.82324,2.52539-2.39404,12.7959-11.38232,27.05176-13.93164-4.99268,2.62451-8.67139,7.61621-9.45361,13.40771-.70264,5.46777,1.1084,10.83984,4.96826,14.73877ZM274.09473,66.26611c-3.42676-3.46191-5.03467-8.23291-4.41113-13.0835.94775-7.01562,6.68213-12.71338,13.63379-13.54736.64746-.07715,1.29199-.11523,1.93262-.11523,4.2207,0,8.23633,1.65527,11.24023,4.68604,3.4375,3.46826,5.05078,8.24805,4.42676,13.11475-.93555,7.0083-6.62793,12.7041-13.5332,13.54395-4.96777.58838-9.81396-1.08789-13.28906-4.59863ZM302.88379,57.58154l.00098-.00488c.70312-5.47852-1.11426-10.86133-4.98535-14.76758-.91113-.91943-1.90527-1.72607-2.96387-2.41455,7.04297,1.80615,16.41895,5.70703,24.65918,14.12988-2.07129,2.5957-10.60938,12.2959-24.92969,15.77832,4.3623-2.75537,7.50977-7.40332,8.21875-12.72119ZM283.98438,73.53516l.11523.00684c20.84766,0,33.48535-13.45801,36.76074-17.43164-.97168,18.77246-16.55078,33.74756-35.56055,33.74756-19.00488,0-34.58008-14.96777-35.55859-33.7334,12.59277,14.72119,33.32617,17.30371,34.24316,17.41064ZM116.39209,116.8501c0-4.91162,3.99609-8.90771,8.90771-8.90771,4.91211,0,8.9082,3.99609,8.9082,8.90771s-3.99609,8.90771-8.9082,8.90771c-4.91162,0-8.90771-3.99609-8.90771-8.90771ZM97.6001,409.95801c-7.99951,0-14.50781-6.50781-14.50781-14.50781,0-4.84375,2.48828-9.39453,6.65674-12.17383.00146-.00098.00342-.00195.00488-.00293,2.28809-1.52539,5.00098-2.33105,7.84619-2.33105,7.99951,0,14.50781,6.50781,14.50781,14.50781s-6.5083,14.50781-14.50781,14.50781ZM281.40039,524.75781c-18.33301,0-33.42822-13.6709-35.11328-31.80859-.1001-1.20703-.19482-2.34668-.19482-3.59961,0-19.52344,15.88379-35.40723,35.40771-35.40723s35.4082,15.88379,35.4082,35.40723c0,.3291-.02441.68164-.04785,1.03418-.02637.39746-.05273.79492-.05078,1.10352-1.17188,18.65625-16.72559,33.27051-35.40918,33.27051ZM425.18164,446.4043c-.02539-.16992-.09473-.33496-.20996-.47852-.05859-.07227-.125-.13379-.19727-.18555-1.64746-2.85938-2.48242-5.9834-2.48242-9.29004,0-10.0611,8.15948-18.24805,18.20801-18.30255v36.60706c-6.24011-.03302-11.93121-3.14288-15.31836-8.3504ZM451.28906,419.12695c-3.11133-1.94434-6.79395-2.96875-10.68945-2.96875-11.18945,0-20.29199,9.10254-20.29199,20.29199,0,3.51562.85254,6.84277,2.54102,9.91309-27.85425,22.27759-67.6181,40.32184-104.25726,47.32098.08459-.70605.15558-1.41644.20062-2.13446,0-.3291.02441-.68164.04785-1.03418.02637-.39746.05273-.79492.05273-1.16602,0-20.61816-16.77441-37.3916-37.39258-37.3916s-37.39209,16.77344-37.39209,37.3916c0,.89044.05029,1.7301.11078,2.55743-54.60602-8.20544-99.16376-35.59186-136.15912-83.71466,3.68115-3.02734,6.03271-7.61523,6.03271-12.74219,0-9.09375-7.39844-16.49219-16.49219-16.49219-2.87109,0-5.62891.72461-8.03955,2.10352-18.16895-32.6875-27.76855-69.875-27.76855-107.61133,0-10.74951.77246-21.4209,2.29639-31.73145.69385.08154,1.39795.12354,2.11182.12354,10.08643,0,18.29199-8.20605,18.29199-18.29248,0-7.98291-5.14014-14.7876-12.28418-17.27881,9.37988-29.62256,25.3667-57.56689,46.29883-80.91211,1.86377,1.49072,4.22607,2.3833,6.79297,2.3833,6.00635,0,10.89258-4.88623,10.89258-10.89209,0-2.61328-.92529-5.01465-2.46533-6.89355,33.66309-31.22998,70.95361-49.42627,113.98096-55.61963.04736,20.68848,16.89258,37.50537,37.5918,37.50537,20.24805,0,36.80859-16.09131,37.56543-36.15723,38.78711,7.50732,76.75195,25.22461,104.56934,48.84521-2.52832,3.38428-4.02637,7.58008-4.02637,12.11963,0,11.18945,9.10254,20.29248,20.29199,20.29248,4.38672,0,8.45215-1.39893,11.77441-3.77393,28.44824,35.13379,45.94629,78.85938,49.3623,123.35693-6.91309.68604-12.3291,6.53467-12.3291,13.62451,0,7.40771,5.91309,13.46045,13.26758,13.68506-2.35059,49.68848-21.68164,97.69141-54.48633,135.29199ZM506.2002,281.85742c-6.45605,0-11.70801-5.25195-11.70801-11.70752s5.25195-11.70752,11.70801-11.70752,11.70801,5.25195,11.70801,11.70752-5.25195,11.70752-11.70801,11.70752Z" fill="#e95420"/><path d="M296.10004,461.84998l-1.80493,12.06445c-.2077-.14978-.40814-.30414-.62518-.44763l-1.06152-.63281c-.13281-.06641-.28711-.14844-.45996-.24023-.9043-.47754-2.27051-1.19922-4.08691-1.71777-2.07715-.62305-4.25195-.93945-6.46191-.93945-12.02734,0-21.81201,9.78613-21.81201,21.81348,0,11.97266,9.78467,21.71289,21.81201,21.71289s21.81348-9.78516,21.81348-21.8125c0-2.31836-.31738-4.49707-.94141-6.4707-.05811-.18701-.95697-3.00757-3.16046-6.13727l.18884-.69244,9.59998-1.59998-10.90002-2.20001-2.09998-12.70001ZM300.72949,485.72559c.56934,1.7998.85742,3.79395.85742,5.9248,0,11.02051-8.96582,19.98633-19.9873,19.98633-11.02051,0-19.98682-8.9209-19.98682-19.88672,0-11.02148,8.96631-19.9873,19.98682-19.9873,2.03223,0,4.03027.29004,5.94922.86523,1.64453.46875,2.90918,1.1377,3.74609,1.58008.18652.09863.35254.18652.43555.22559l.73828.44196-9.96875,1.87445,10.5,1.59998,2.90002,13.20001,2.76477-10.13739c1.43384,2.36163,2.05286,4.27484,2.0647,4.31299Z" fill="#e95420"/><path d="M277.73828,505.50195c-.23193-.09277-.42188-.16406-.59717-.23047-.56299-.21289-.9375-.35352-2.15967-1-.09326-.06445-.2168-.14355-.36719-.23828-.58105-.36621-1.66211-1.04785-2.84375-2.30273-1.15332-1.25-1.70459-1.98242-2.26904-3.0166-.2417-.44336-.79541-.60645-1.23828-.36523-.44238.24219-.60596.7959-.36426,1.23828.6377,1.1709,1.27637,2.02344,2.53662,3.38867,1.34668,1.43066,2.55566,2.19238,3.20508,2.60156.13574.08594.24219.15137.31201.20312l.12012.07617c1.36768.72461,1.81055.8916,2.42383,1.12305.16553.0625.34521.12988.56494.21777.11084.04395.22559.06543.33789.06543.36279,0,.70557-.21777.84814-.57422.18701-.46875-.04102-1-.50928-1.18652Z" fill="#e95420"/><path d="M287.12988,505.66699c-.26074.15723-.80273.25879-1.43066.37695l-.53809.10352c-.90625.13965-1.47363.11914-2.02441.10254-.18457-.00684-.36035-.0127-.53711-.0127-.50391,0-.91309.40918-.91309.91309s.40918.91309.91309.91309c.15625,0,.3125.00488.47559.01074.19238.00684.39941.01367.63281.01367.46289,0,1.02832-.02832,1.77051-.14258l.55762-.10742c.7998-.15039,1.49121-.28027,2.0332-.60449.43164-.25977.57227-.82031.31348-1.25293-.25977-.43164-.81836-.57227-1.25293-.31348Z" fill="#e95420"/><path d="M267.79688,489.41797c.22656-1.20508.82764-4.4082,3.5874-7.46387,1.47314-1.66895,1.98145-1.9668,2.82373-2.3877.45068-.22559.63379-.77344.4082-1.22461-.22607-.45215-.7749-.63281-1.22461-.4082-1.18018.58984-1.86768,1.10352-3.36865,2.80469-3.09766,3.42871-3.76807,6.99902-4.01807,8.33301-.36035,1.80176-.39258,3.41895-.1084,5.40723.06543.45605.45557.78418.90283.78418.04297,0,.08643-.00293.13037-.00977.49902-.07129.8457-.5332.77441-1.03223-.25684-1.79492-.23047-3.18359.09277-4.80273Z" fill="#e95420"/><path d="M350.40039,216.5498c-3.47461,0-6.30078,2.82617-6.30078,6.30029,0,3.47363,2.82617,6.2998,6.30078,6.2998,3.47363,0,6.2998-2.82617,6.2998-6.2998,0-3.47412-2.82617-6.30029-6.2998-6.30029Z" fill="#e95420"/><circle cx="280.10004" cy="55.14996" r="1.90002" fill="#e95420"/><path d="M288,52.84998c1.04938,0,1.90002-.85065,1.90002-1.90002,0-1.04932-.85065-1.89996-1.90002-1.89996-1.04932,0-1.90002.85065-1.90002,1.89996,0,1.04938.85071,1.90002,1.90002,1.90002Z" fill="#e95420"/><path d="M284.40002,60.04999c-1.40002-.29999-2.5-1.20001-3.09998-2.39996-.5.20001-1.09998.29999-1.59998.20001.79999,1.89996,2.40002,3.29999,4.40002,3.79999.40002.09998.90002.09998,1.29999.09998-.29999-.5-.5-1-.59998-1.59998-.1001,0-.30011-.10004-.40009-.10004Z" fill="#e95420"/><circle cx="287.60004" cy="60.04999" r="1.90002" fill="#e95420"/><path d="M289.40002,53.24994c.5,1,.70001,2.10004.40002,3.20001-.09998.5-.29999,1-.59998,1.5.49994.40002.89996.90002.99994,1.40002.59998-.79999,1-1.60004,1.20001-2.60004.29999-1.59998,0-3.39996-.90002-4.79999-.20001.5-.59998,1-1.09998,1.29999Z" fill="#e95420"/><path d="M280.69995,52.45001c.29999.09998.59998.20001.90002.39996.90002-1.20001,2.20001-2,3.70001-2,0-.10004,0-.29999.09998-.39996.09998-.40002.29999-.79999.5-1.10004-2.39996-.29999-4.79993.90002-5.89996,3h.09998c.20001,0,.40002,0,.59998.10004Z" fill="#e95420"/></svg>