<?xml version="1.0" encoding="UTF-8" standalone="no" ?>
<!DOCTYPE svg PUBLIC "-//W3C//DTD SVG 1.1//EN" "http://www.w3.org/Graphics/SVG/1.1/DTD/svg11.dtd">
<svg xmlns="http://www.w3.org/2000/svg" xmlns:xlink="http://www.w3.org/1999/xlink" version="1.1" width="500" height="500" viewBox="0 0 500 500" xml:space="preserve">
<desc>Created with Fabric.js 4.6.0</desc>
<defs>
</defs>
<g transform="matrix(1.33 0 0 1.33 250 250)" id="Utl18AfBuImXckRamveEf"  >
<g style="" vector-effect="non-scaling-stroke"   >
		<g transform="matrix(1 0 0 1 -164.1 -114.21)" id="NfyLwHe90HK_Vr6HpeOW1"  >
<path style="stroke: none; stroke-width: 1; stroke-dasharray: none; stroke-linecap: butt; stroke-dashoffset: 0; stroke-linejoin: miter; stroke-miterlimit: 4; fill: none; fill-rule: nonzero; opacity: 1;" vector-effect="non-scaling-stroke"  transform=" translate(-12, -12)" d="M 0 24 L 0 0 L 24 0 L 24 24 z" stroke-linecap="round" />
</g>
		<g transform="matrix(6.37 0 0 6.37 -75.41 -108.95)" id="jG5a6rUiwnea7reTSlKrp"  >
<path style="stroke: none; stroke-width: 1; stroke-dasharray: none; stroke-linecap: butt; stroke-dashoffset: 0; stroke-linejoin: miter; stroke-miterlimit: 4; fill: rgb(0,0,0); fill-rule: nonzero; opacity: 1;" vector-effect="non-scaling-stroke"  transform=" translate(-12, -12)" d="M 12 12.75 C 13.629999999999999 12.75 15.07 13.14 16.240000000000002 13.65 C 17.32 14.13 18.000000000000004 15.21 18.000000000000004 16.38 L 18 18 L 6 18 L 6 16.39 C 6 15.21 6.68 14.13 7.76 13.66 C 8.93 13.14 10.37 12.75 12 12.75 z M 4 13 C 5.1 13 6 12.1 6 11 C 6 9.9 5.1 9 4 9 C 2.9000000000000004 9 2 9.9 2 11 C 2 12.1 2.9 13 4 13 z M 5.13 14.1 C 4.76 14.04 4.39 14 4 14 C 3.01 14 2.0700000000000003 14.21 1.2200000000000002 14.58 C 0.48 14.9 0 15.62 0 16.43 L 0 18 L 4.5 18 L 4.5 16.39 C 4.5 15.56 4.73 14.78 5.13 14.1 z M 20 13 C 21.1 13 22 12.1 22 11 C 22 9.9 21.1 9 20 9 C 18.9 9 18 9.9 18 11 C 18 12.1 18.9 13 20 13 z M 24 16.43 C 24 15.62 23.52 14.9 22.78 14.58 C 21.93 14.21 20.99 14 20 14 C 19.61 14 19.24 14.04 18.87 14.1 C 19.27 14.78 19.5 15.559999999999999 19.5 16.39 L 19.5 18 L 24 18 L 24 16.43 z M 12 6 C 13.66 6 15 7.34 15 9 C 15 10.66 13.66 12 12 12 C 10.34 12 9 10.66 9 9 C 9 7.34 10.34 6 12 6 z" stroke-linecap="round" />
</g>
		<g transform="matrix(2 0 0 2 36.44 -32.26)" id="sZrrAGukk3M1CJcqBT3A_"  >
<path style="stroke: none; stroke-width: 1; stroke-dasharray: none; stroke-linecap: butt; stroke-dashoffset: 0; stroke-linejoin: miter; stroke-miterlimit: 4; fill: none; fill-rule: nonzero; opacity: 1;" vector-effect="non-scaling-stroke"  transform=" translate(-12, -12)" d="M 0 0 L 24 0 L 24 24 L 0 24 z" stroke-linecap="round" />
</g>
		<g transform="matrix(5.75 0 0 5.75 130.13 -18.85)" id="uIwwyZUdeALHKHvy6T-e6"  >
<path style="stroke: none; stroke-width: 1; stroke-dasharray: none; stroke-linecap: butt; stroke-dashoffset: 0; stroke-linejoin: miter; stroke-miterlimit: 4; fill: rgb(0,0,0); fill-rule: nonzero; opacity: 1;" vector-effect="non-scaling-stroke"  transform=" translate(-12, -12)" d="M 14 2 L 6 2 C 4.9 2 4.01 2.9 4.01 4 L 4 20 C 4 21.1 4.89 22 5.99 22 L 18 22 C 19.1 22 20 21.1 20 20 L 20 8 L 14 2 z M 16 18 L 8 18 L 8 16 L 16 16 L 16 18 z M 16 14 L 8 14 L 8 12 L 16 12 L 16 14 z M 13 9 L 13 3.5 L 18.5 9 L 13 9 z" stroke-linecap="round" />
</g>
		<g transform="matrix(2 0 0 2 -50.91 76.41)" id="vzniUCfDj9ScPwuPTDX_Z"  >
<path style="stroke: none; stroke-width: 1; stroke-dasharray: none; stroke-linecap: butt; stroke-dashoffset: 0; stroke-linejoin: miter; stroke-miterlimit: 4; fill: none; fill-rule: nonzero; opacity: 1;" vector-effect="non-scaling-stroke"  transform=" translate(-12, -12)" d="M 0 0 L 24 0 L 24 24 L 0 24 z" stroke-linecap="round" />
</g>
		<g transform="matrix(4.94 0 0 4.94 -1.03 97.77)" id="_4NjzduIdrBULCZAsMU6C"  >
<path style="stroke: none; stroke-width: 1; stroke-dasharray: none; stroke-linecap: butt; stroke-dashoffset: 0; stroke-linejoin: miter; stroke-miterlimit: 4; fill: rgb(0,0,0); fill-rule: nonzero; opacity: 1;" vector-effect="non-scaling-stroke"  transform=" translate(-12, -12)" d="M 21 6 L 19 6 L 19 15 L 6 15 L 6 17 C 6 17.55 6.45 18 7 18 L 18 18 L 22 22 L 22 7 C 22 6.45 21.55 6 21 6 z M 17 12 L 17 3 C 17 2.45 16.55 2 16 2 L 3 2 C 2.45 2 2 2.45 2 3 L 2 17 L 6 13 L 16 13 C 16.55 13 17 12.55 17 12 z" stroke-linecap="round" />
</g>
</g>
</g>
</svg>