<?xml version="1.0" encoding="UTF-8" standalone="no"?>
<!-- Generator: Adobe Illustrator 26.5.0, SVG Export Plug-In . SVG Version: 6.00 Build 0)  -->
<svg id="Layer_1" style="enable-background:new 0 0 909.2 790.3" xmlns="http://www.w3.org/2000/svg" xml:space="preserve" viewBox="0 0 909.2 790.3" version="1.1" y="0px" x="0px" xmlns:xlink="http://www.w3.org/1999/xlink">
<style type="text/css">
	.st0{fill:url(#SVGID_1_);}
</style>
		<linearGradient id="SVGID_1_" y2="390.92" gradientUnits="userSpaceOnUse" x2="759.85" y1="390.92" x1="124.3">
			<stop stop-color="#E04403" offset=".00021884"/>
			<stop stop-color="#941B80" offset="1"/>
		</linearGradient>
		<path class="st0" d="m128.5 744.4c-1.1 0-1.9-0.2-2.6-0.6-0.9-0.5-1.4-1.4-1.6-2.5v-0.1c0-0.2 0.4-21.8 9.6-23.8 2.2-0.5 5-0.6 7.6-0.7h1.3c7.6-0.2 9.3-0.9 9.5-1.4 0.1-0.5 0.2-1.1 0.2-1.7 0-0.3 0-0.7 0.1-1 0.3-3.6 0.7-7.9 6.4-9.8 3.7-1.2 7-9 11.1-18.7l0.1-0.1c1.1-2.6 2.4-5.5 3.7-8.6l0.9-1.9c7.4-16.4 14.9-43.1 16.8-54.2 1.9-11.3 6.9-20.5 14.8-27.6-7.7-19.9-12.2-32.3-9-38.1 3.7-6.7 10.8-8.6 47.6-6.9 1.5-3.9 2.6-7.8 3.4-11.4 1.6-7.7 1.9-18 2.1-28.7v-0.5c0.2-7.7 0.4-15.7 1.1-23.8-1.9-3.4-3.2-5.8-4.1-7.7-2.4-4.8-3-5.6-4.1-5.6-0.3 0.1-1 0.8-2.5 3.8-1.9 3.7-4.6 8.6-9.9 8.8-1.6 0-2.9-1-3.4-2.7-1.5-4.9 3.1-17.6 8.3-27.9 3.3-6.7 12.3-22.9 23.3-29.6 7.3-4.5 18-6.5 25.7-7.3 9.2-7.3 19.7-12.9 30.4-16.4 7.5-2.4 17.3-5 27.7-7.7l4.8-1.3c19-5 40.5-10.6 51.8-16.3 8.7-4.3 16.7-11.3 25.9-19.4l1-0.9c9.4-8.4 21.1-18.8 36.5-28.4 7.4-4.6 16.9-9.4 27-13.5 0.9-6.9 3.5-12.6 7.6-16.7 6.7-6.7 16.9-9.3 30.2-7.8 4.5 0.5 8.6 1.6 12.6 3.4 7.2-2.9 15.9-5.8 25.1-8.7l0.7-0.2c13.3-4.3 27.1-8.8 37.7-14.2 6.3-3.2 10.9-5.6 14.9-7.9-7.1-1.6-13-3.9-17.4-5.7l-1.1-0.4c-0.2-0.1-20.9-8-19.5-16.1 0.8-4.5 7.7-6.9 21.5-7.4 14.1-0.6 21.9-0.7 42.9 3.9 5.3 1.1 9.3 1.5 12.7 1.4 12.5-9.3 14.1-17.4 6.1-31.9-7-12.8-26.1-15.9-48.3-19.6l-1.3-0.2c-9.2-1.5-18.7-3.1-27.8-5.6-36.4-9.7-47.3-29.2-53.7-48.9-5.5-16.7-26.7-33.7-36.9-41.9l-0.1-0.1c-6.1-4.9-7.5-6-6.7-7.9 0.5-0.9 1.3-1.3 2.5-1.3 3.6 0.1 13.9 3.5 24.8 10.3 9.7 6.1 22.8 16.8 29.9 33.2 10.6 24.4 23.9 31.9 51.7 40.3 8 2.4 16.9 4.2 25.4 6l1.8 0.4c22.8 4.5 44.3 8.8 53.1 23.8 5.7 9.9 7.6 19.6 8.1 26.7 5.9-5.9 9.1-16.9 8.3-29-1.1-17.8-9.7-33.6-23.7-43.3-8-5.6-17.1-10.2-25.9-14.6l-0.8-0.4c-17.1-8.6-33.2-16.7-39.6-30.7-9.2-20.1-30.8-40.1-60.9-56.4l-0.1-0.1c-1.9-1.1-3-1.7-2.5-3.3l0.6-1.6 1.7 0.4c0.5 0.1 52.2 12.8 65.6 35.5 2.9 4.9 4.6 8.5 6 11.5l0.2 0.3c3.4 7 5 10.5 17.6 20 7.7 5.9 17.2 10.6 27.2 15.7 22.1 11.2 45 22.8 50.1 46.8 6.1 29-2.8 44.4-8.6 54.6-2.7 4.6-4.4 7.8-4 10.2 1.3 9 15.4 18 27 24 6.4 3.3 11.3 4.6 15.3 5.6l1.1 0.3c3.7 1 6.7 1.8 8.8 4.2 3.3 3.6 10.7 14.6 9.3 20.5-0.8 3.3-2 4-4.2 5.1-1.4 0.6-3.1 1.4-5.9 3.5-7.2 5.4-13.4 7.3-28.9 4s-31.2-4.2-43.2-2.4c-24.2 3.6-48 22.8-59.1 40.1-1.4 2.1-3.2 5-5.3 8.1l-2.3 3.6c-6.7 10.4-15.1 23.3-21.5 34.9-0.1 0.2-0.2 0.4-0.4 0.6-0.2 0.4-0.4 0.7-0.6 1.1 0 3.8-0.1 7.4-0.2 11.3v0.2c-0.1 3.7-0.2 7.2-0.1 10.3 12.3-3.3 33.7-13.9 43-18.5l2.5-1.2c3.3-1.6 5.6-2.8 6.7-3.2 9.6-3.4 17.2 0.4 21.5 10.6 3.4 8.2 16 75.6 14 88.3-2.3 14.5-19.7 37.9-28.9 44.3-2.5 1.7-4.4 2.3-6.1 2-1.4-0.3-3.9-1.5-4.9-5.8-1.6-6.9 1.4-18.9 5.5-22 1.2-0.9 2.5-1.7 3.8-2.5 3.5-2.1 3.9-2.6 3.1-4.8-2.9-6.9 1.2-8.7 6.7-11.2l0.7-0.3c3.4-1.5 3.4-3.7 2.3-13-0.1-0.6-0.2-1.3-0.2-1.9-0.2-1.2-0.3-2.4-0.5-3.8v-0.5c-0.1-1-0.2-2.1-0.3-3.2v-0.3c-0.7-8-1.9-20.9-5.4-30.6-3.7 9.4-11 21.3-20.6 36.1-9.7 15-20.5 27.7-30.1 39l-0.1 0.1c-4.2 4.9-7.8 9.2-11 13.1-12.5 15.6-38.3 14.6-44.7 12.2-2.4-0.9-3.4-3.3-2.7-6.3 1.6-6.6 11.3-17 19.4-16.4 7.9 0.7 14-0.8 14.9-1.8 0-0.1-0.1-0.1-0.1-0.2-0.8-1-1-2.2-0.8-3.5 1.1-5.4 12.2-12.6 21.2-17.8 0.3-0.2 0.5-0.3 0.5-0.3 6.9-3.7 28-36 31.7-45-4.9 2.2-16.9 10-25.9 15.8l-5.5 3.6c-7.2 4.7-14 9.1-18.1 11.5-6.8 3.8-12.4 4.9-17 3.2-4.3-1.5-7.7-5.3-10-11.3l-0.5-1.2c-2.2-5.5-4.6-11.6-10-13.8-4.7-1.9-11.3-0.7-20.1 3.6-3.5 1.7-7.3 3.8-11.3 6l-0.5 0.3c-25.2 13.7-59.7 32.5-106.7 20-3.7-1-7-2.2-9.7-3.5-5.4 0.4-10.2 0.6-14.4 0.4l-4.3-0.2c-5.9-0.2-11-0.4-15.4-0.4-2.5 10-6.6 21.1-12.4 32.9 6.6 12.5 12.7 25.7 12.4 38.1-0.8 30.2-12.9 45.8-36.8 47.9-21.1 1.7-42.4-2.3-53.4-4.8-4.1 1.8-8.5 3.3-12.7 4.9l-2.1 0.8c-6.7 2.5-13.1 4.9-18.7 7.9 4.6 24.1 7.1 39.6 7.8 47.6 0.3 3.4 0.8 6.8 1.3 10.5l0.2 1.4c1.8 11.9 3.7 24.2-1.1 36.5-5.4 14.1-14.4 30.6-21.6 30.7-3.4 0-5.4-4-6.3-6.5-2.5-6.5-3.6-17.6 1-21.7 1.2-1.1 2.4-2.1 3.4-2.9l0.7-0.6c2.3-1.9 6.2-5.2 6.2-6.5l-0.2-0.2c-4.6-3.7-5.5-6.2-2.7-15.5 2.3-7.7-1-30.9-7.4-52.5-4.2 8.6-7.7 18-11.8 28.9l-0.1 0.4c-3.1 8.4-6.8 18.3-11.4 29l-1.7 4c-10.4 24.2-17.9 41.6-37.5 51.1-12.9 6.4-21.5 9.7-25.8 9.7zm-0.3-3.4zm0-0.6c1.3 0 6.6-0.7 24.5-9.3 18.3-8.9 25.5-25.8 35.5-49.1l1.7-4c3.6-8.3 6.6-16.3 9.5-24 0.6-1.6 1.2-3.3 1.8-4.9l0.6-1.6c4.5-12 8.3-22.4 13.3-31.7-0.1-0.4-0.2-0.8-0.4-1.1-0.2-0.5-0.4-1.1-0.5-1.6-2.1-6.3-4.4-12.7-6.3-17.7-6.7 6.5-10.7 14.4-12.4 24.3-1.9 11.2-9.5 38.3-17.1 55.1-1.2 2.6-2.3 5.2-3.3 7.5l-1.3 3c-4.9 11.6-8.1 19.3-13.6 21.1-3.2 1.1-3.4 3.2-3.7 6.3v0.1c-0.1 1-0.2 2.1-0.4 3.1-0.9 4.4-7.5 4.5-13.3 4.6-3 0.1-6 0.2-8.2 0.7-4.2 1-6.4 14.2-6.4 19.2zm91.5-124.3c7.6 23.8 11.3 49.5 8.6 58.7-2.5 8.3-1.7 8.9 1.4 11.3 1.5 1.2 1.7 2.7 1.7 3.3 0 3.3-4.3 6.9-8.4 10.3-0.5 0.5-1.1 1-1.7 1.5s-1.1 0.9-1.7 1.4c-2.5 2.2-2.4 10.9 0.2 17.3 1.2 3 2.3 3.8 2.5 3.9 2.8 0 10.8-10 17.8-28.2 4.4-11.6 2.6-23.4 0.8-34.8l-0.2-1.5c-0.5-3.6-1-6.9-1.3-10.4-1-11.3-5.6-36.3-7.4-45.8-5 3.1-8.4 6.5-10.6 10.2l-0.5 0.9c-0.4 0.6-0.8 1.3-1.2 1.9zm-8.5-23.5l0.2 0.5c2.3 5.9 4.6 12 6.6 18 2.7-4.6 7-8.5 13.2-12.2l-0.2-0.8c-0.6-3.1-1.1-5.7-1.5-7.9l-0.7-3.5c-0.6-3.2 0.3-5.9 2.6-7.7 5-4.3 15.3-3.2 22.7-0.4 3.1 1.2 8.1 2.9 14.7 4.5 5.4-2.3 9.5-4.5 12.9-6.9 2.5-1.7 4.9-3.2 7.1-4.7l0.1-0.1c15.2-9.9 27.2-17.8 47.6-54.2 2.1-3.7 4-7.4 5.8-11-0.4-0.8-0.8-1.6-1.2-2.3-5-9.3-9.4-17.3-8.6-22.8 1.5-9.7 8.7-11.6 23.5-11.8 4.3-20.1 1.4-34.8-8.4-41.6-11.6-8-37.9-12.3-61.4-10.2-7.5 6.1-14 13.4-18.7 21.2-6.6 10.9-10.5 24.3-12 42.2 0.2 0.3 0.3 0.6 0.5 0.9 0.4 0.7 0.8 1.3 1.2 2 3.8 6.2 8.2 10.7 12.8 15.5l1.1 1.1c4.9 5.1 9.9 10.3 14.4 17.6 5.2 8.5 5.6 18.7 1.1 26.1-3.1 5.1-8.1 7.9-13.6 7.6-10.2-0.6-18.5-1.1-25.5-1.5-8 19.1-21.6 32.4-31.7 38.7-0.7 0.6-1.5 1.2-2.3 1.8-0.8 0.8-1.6 1.3-2.3 1.9zm30.3-12.4c-3.3 0-6 0.7-7.4 2-1.1 1-1.5 2.2-1.2 3.9l0.7 3.5c0.4 2.1 0.9 4.9 1.4 7.4 6.4-3.2 13.7-5.9 20.1-8.3 2.5-0.9 5.1-1.9 7.6-2.9-3.8-1.1-7.2-2.2-9.9-3.3-4.7-1.9-8.7-2.3-11.3-2.3zm33.8 4.4c10.8 2.2 29 5.1 47 3.6 21.6-1.8 32.4-16.1 33.1-43.9 0.3-11.1-5-23.1-10.6-33.6-1.4 2.8-3 5.7-4.7 8.6-21 37.5-33.4 45.5-49.1 55.6-2.3 1.5-4.6 3-7 4.7-2.6 1.8-5.5 3.4-8.7 5zm-51.1-34.8c-18.8 0-21.5 2.2-23.3 5.4-2.4 4.3 3.9 20.8 8.8 33.4 1.3-1 2.7-2 4.1-2.8 9.3-5.8 21.9-18.1 29.5-35.5-7.7-0.3-14-0.5-19.1-0.5zm25-3.2l3.6 0.2c6.1 0.3 13 0.7 20.7 1.2 4 0.3 7.6-1.7 9.9-5.6 3.7-6.1 3.3-14.7-1.1-22-4.2-6.9-9.1-12-13.8-16.9l-1.1-1.2c-4.1-4.3-8.4-8.7-12.1-14.4-0.3 5.4-0.5 11.2-0.6 18.5-0.2 11.4-0.5 21.5-2.2 29.4-1 3.8-2.1 7.4-3.3 10.8zm312-34.9c-0.3 0.1-0.6 0.1-0.7 0.1-5.7 0-13.4 8.4-14.6 13.2-0.2 0.9-0.1 1.5 0.1 1.6 5.6 2.2 29 2.9 40.2-11 3.6-4.4 7.4-9 11-13.2 9-10.5 20.1-23.5 29.9-38.7 9.4-14.5 18.5-29.2 21.6-39.4-2.4-4.5-5.4-7-8.9-7.5-7.7-1.1-31.9 17.2-46.4 28.1l-2.4 1.8c-0.6 0.4-1.2 0.9-1.7 1.3-17.4 13-24.8 5.3-43.7-18.7-6.6-8.3-15.6-22.1-24.8-38-6.1 1.2-12.8 2.5-21.6 4.2-5.1 18.4-11.8 31.5-21.1 41.1-16.9 17.5-46.5 31.3-76.4 35.7 0.7 0.2 1.5 0.4 2.2 0.6 45.7 12.1 79.2-6.2 103.8-19.6l3.9-2.1c2.9-1.5 5.6-3 8.2-4.3 9.8-4.8 17.4-6.1 23.3-3.7 7.1 2.8 10.1 10.5 12.3 16.1l0.5 1.2c1.9 4.8 4.5 7.8 7.6 8.9 3.6 1.3 8.2 0.3 13.8-2.9 3.8-2.2 10-6.2 16.5-10.4l2.9-1.9c26.8-17.6 32.7-20.8 35.4-19.4l0.1 0.1c0.4 0.3 1.2 0.8 1.2 2.3 0 4.9-12.5 23.7-14 25.9-3.3 5-14.7 21.4-20.2 24.5-10.3 5.6-19.2 12.5-19.8 15.3v0.2c1.1 1.4 1.3 2.9 0.6 4.4-2.3 4.4-13.1 4.7-18.8 4.2zm91.9-87.6c5 10.4 6.5 26.1 7.4 35.4l0.1 0.9c0.1 1.4 0.2 2.7 0.4 3.7 0.1 1.3 0.3 2.4 0.4 3.6l0.3 2.1c1.1 8.2 1.8 14.1-4.7 17.1l-0.7 0.3c-5.9 2.7-5.9 2.8-4.6 6 2.2 5.5-1.6 7.8-4.7 9.6l-0.8 0.5c-0.9 0.5-1.8 1.1-2.6 1.8-2.4 1.9-5.4 11.9-4 18 0.2 0.9 0.8 2.6 1.8 2.7 0.1 0 0.9 0.1 3-1.3 8.7-6 25.1-28.4 27.3-41.6 1.9-11.4-10.6-78.7-13.7-86.2-3.5-8.5-8.7-11.2-16.3-8.4-1 0.4-4.5 2.1-8.6 4.2-16.9 8.4-34 16.5-44.7 19 0.3 6.2 1.6 7.8 2.3 8.1 5.9 2.9 25.8-6.4 35.4-10.9l0.3-0.1c0.9-0.4 1.7-0.8 2.4-1.1 1.2-0.6 2.3-1.1 3.3-1.5 4.8-2.1 9.3-2.4 13.2-0.8 3.6 1.5 6.4 4.7 8.1 9.2 0.7 2.5 0.6 5.8-0.3 9.7zm-298 49.3c-13.3 0.2-17.7 2.2-18.6 8.3-0.6 4 3.5 11.5 8.1 20.2 4.7-10 8.2-19.6 10.5-28.5zm-75.9-54.7c-7.4 1.2-13.8 3.2-18.1 5.8-7.2 4.4-15.1 14.6-21.8 28-5.9 11.9-8.7 21.9-8 24.9 2.7-0.3 4.5-3.8 5.9-6.5 1.4-2.8 3.1-5.9 6.1-5.9 3.8 0 5.2 2.8 7.7 7.9 0.4 0.8 0.8 1.6 1.3 2.5 1.9-15.8 5.8-28 12-38.2 3.8-6.7 8.8-12.9 14.9-18.5zm80.9 50.7c4.4 0 9.4 0.2 15.1 0.5l3.8 0.1c3.1 0.1 5.7 0.1 8.1 0-5.8-4.3-8.8-9.9-8.6-16.2 0.3-10 8.6-21.4 22.6-31.3 14.5-10.3 34.3-18.4 55.7-22.8 11.2-2.3 22.3-4.4 32.6-6.2 1.2-0.2 2.4-0.4 3.5-0.6 1-0.2 1.9-0.4 2.9-0.5 1.8-6.9 3.3-13.8 4.6-20.3 0.4-1.6 0.7-3.3 1-4.9 0.6-2.8 1.2-5.5 1.8-8.2-8.2-17-12.7-29.4-13.5-36.9-0.3-2.6-0.5-5.2-0.4-7.6-9 3.8-17.7 8.2-24.6 12.4-15 9.4-26.6 19.7-36 28l-0.4 0.4c-9.6 8.5-17.9 15.9-27.3 20.5-11.7 5.8-32.6 11.4-54.8 17.1l-3 0.8c-10.2 2.7-19.9 5.2-27.1 7.5-8.4 2.7-16.7 6.8-24.1 12 22.9-1.1 46.2 3.5 57.7 11.4 9.7 6.8 13.7 19.5 11.5 36.8-0.1 2.6-0.5 5.3-1.1 8zm134.8-72.8c-1.4 0.3-3 0.6-4.5 0.8-9.6 1.7-20.3 3.8-32.5 6.2-21.1 4.3-40.6 12.3-54.7 22.5-12.7 9.1-20.2 19.2-20.4 27.7-0.2 6.4 3.6 11.7 11.4 15.6 31-2.9 63.6-17.1 81.3-35.5 8.3-8.6 14.5-20.5 19.4-37.3zm30.2-6c8.8 15.1 17.4 28.3 23.8 36.4 18.6 23.7 23.5 28.8 38.1 17.9 0.5-0.4 1.1-0.8 1.7-1.3l2.4-1.8c20.2-15.2 40.6-30 49.3-28.9 3.6 0.5 6.8 2.5 9.4 5.8 0-1.2-0.1-2.2-0.5-3.2-1.3-3.4-3.3-5.7-5.9-6.8-2.7-1.2-6.3-0.9-10 0.8l-1.1 0.5c-1.3 0.6-2.8 1.3-4.5 2.1-15.8 7.5-31.9 14.5-39.1 11-3.3-1.6-4.2-6.4-4.5-11.1-3.2 0.4-5.4-0.1-6.8-1.3-3.5-3-1.4-11.2 7-26.5 0-5.9-0.2-11-0.7-15.6-3.6 2.8-7.8 5.4-12.6 7.7-10.9 5.4-25.1 9.8-46 14.3zm59 2.7c-6.1 12.7-4.3 14.6-4.3 14.6 0.3 0.2 1.3 0.7 4 0.3-0.1-3.2 0-7 0.1-10.9v-0.7c0.1-1.1 0.2-2.2 0.2-3.3zm-77.7-28.7c-0.6 2.6-1.2 5.2-1.7 7.9l-0.4 2.1c-1.2 5.5-2.4 11.2-3.8 16.9 1.8-0.3 3.6-0.7 5.4-1 4.5-0.9 8.8-1.7 13-2.5-4.9-8.6-9.1-16.5-12.5-23.4zm1.4-6.2c2.3 4.9 5 10 7.5 14.7s5.1 9.3 7.6 13.8c22.1-4.7 46.4-11.1 60-23-0.6-4.3-1.4-8-2.4-11.4-8.9-30.4-22.1-45.9-31.7-53.6-7.3 0.4-14.9 1.5-22.7 3.4-5.5 6.3-7.6 15.2-10.4 26.3-1.2 5.2-3 12.3-5.4 19.9-0.8 3.3-1.7 6.6-2.5 9.9zm79.5 7.2c0.5 4 0.7 8 0.9 11.9 5.3-9.2 12.4-20.5 21.7-34.5l1.8-2.7c1.3-2 2.5-3.8 3.4-5.4 11.5-18 36.5-38.1 61.9-41.9 12.6-1.8 28.9-0.9 44.7 2.5 14.1 3 19.1 1.5 25.6-3.3 3.1-2.3 5.1-3.2 6.7-3.9s1.6-0.7 2-2.3c0.7-3.1-4.2-12.4-8.4-16.9-1.6-1.7-3.9-2.3-7.7-3.3-3.7-1-9.4-2.4-16.4-6.1-12.4-6.4-27.6-16.3-29.1-26.9-0.5-3.8 1.4-7.6 4.5-12.8 5.5-9.7 13.9-24.3 8.1-51.8-4.7-22.1-26.6-33.2-47.8-43.9l-1.5-0.8c-9.7-5-18.9-9.6-26.5-15.4-13.5-10.2-15.3-14-18.8-21.5l-0.5-1c-1.3-2.7-2.9-6.1-5.5-10.4-8.1-13.7-31.9-23.7-47.4-29 24.2 15.3 41.8 33.2 49.9 50.9 5.7 12.5 21.2 20.3 37.5 28.6l0.2 0.1c9.2 4.6 18.7 9.4 27.1 15.4 15 10.5 24.2 27.4 25.3 46.4 0.8 13.8-3.2 26.4-10.5 32.9-0.6 0.5-1.2 1-1.7 1.5-0.1 6.3-1.1 11.2-2.1 13.7-0.6 1.9-4.7 8.8-9.6 12.6-6.8 5.3-16.6 9.6-24.9 10.9-8.2 1.4-16.5 1.4-25.3 0.2-6 3.4-12 6.7-19.1 10.3-11.4 5.7-26.6 10.6-38.8 14.6l-3.5 1.1c-6.6 2.1-12.8 4.1-18.3 6.3 1.8 1.1 3.7 2.3 5.6 3.8 11.2-0.4 20.6 1.1 28 4.5 11.3 5.1 18.1 14.4 20.3 27.6 2.4 15.7-1.4 28.2-11.8 38zm-32-66.6c16.9 16 26 41.9 29.2 52.5 0.9 3.1 1.6 6.1 2.1 9.2 7.9-8.6 10.7-19.3 8.6-32.8-1.9-11.8-8-20.1-17.9-24.6-6.1-2.8-13.3-4.1-22-4.3zm-61.6 13.8c-0.2 2.6-0.1 5.5 0.3 8.8 0.7 6.3 4.7 17.3 11.1 31.2 0.5-1.8 1-3.6 1.5-5.3 1.9-5.8 3.3-11.4 4.5-16.3 0.3-1.1 0.6-2.2 0.8-3.3 2.3-9.3 4.2-17.4 8.2-23.9-8.9 2.3-18 5.4-26.4 8.8zm27.2-23.7c-8.9 0-15.8 2.4-20.5 7-3 3-5.1 7.1-6.1 12.1 10.3-4 20.3-7.1 29.7-9.3 1.4-1.5 3.2-3 5.2-4.4 1.7-1.1 3.7-2.2 5.9-3.3-2.6-0.9-5.3-1.6-7.8-1.8-2.2-0.2-4.3-0.3-6.4-0.3zm19.2 4.3c-2.8 1.2-5.3 2.4-7.5 3.7 4.1-0.7 7.8-1.3 11.3-1.6-1.2-0.7-2.5-1.4-3.8-2.1zm90.5-37.6c6.3 0.5 12.6 0.3 18.8-0.7 7.7-1.3 16.7-5.2 23-10.1 4.2-3.2 7.8-9.4 8.4-10.7 0.7-2 1.3-5.1 1.6-8.6-7.5 6.5-14 11.1-23.1 11.8l-0.9 0.6c-0.9 0.7-1.9 1.4-3 2l-3.1 2c-1.8 1.1-3.5 2.2-5.2 3.3-5.7 3.8-10.9 7.1-16.5 10.4zm-17.8-23.8c-3.1 0-6.4 0.1-10.2 0.3-17 0.7-17.7 4-17.8 4.2-0.4 2.2 6.8 7.7 17.1 11.7l1.1 0.4c4.5 1.8 11.9 4.8 21.3 6.4 8.8-5.1 16.1-9.8 26.1-16.2l2.1-1.3c-2.6-0.2-5.2-0.6-8-1.2-15.6-3.6-23.5-4.3-31.7-4.3zm45.8 3.7zm-160.7-154c0.2 0.2 0.4 0.4 0.7 0.5 9.7 7.7 32.4 25.9 38.3 44 6 18.5 16.3 37 50.9 46.2 9.2 2.4 18.5 4.1 28.7 5.8l0.4 0.1c22 3.7 42.8 7.2 50.7 21.5 7.6 13.9 7.3 23.3-1.6 32.2 5.5-2.1 10.4-6.2 16.7-11.8-0.1-7-1.5-17.4-7.7-28-7.7-13.2-28-17.4-49.5-21.8l-0.8-0.2c-9-1.8-18.6-3.8-27.6-6.4-29.1-8.8-43.1-16.7-54.1-42.5-10.2-23.5-33.9-35.6-45.1-39.6zm45.6-41.8z"/>
</svg>