<svg width="595" height="597" viewBox="0 0 595 597" fill="none" xmlns="http://www.w3.org/2000/svg">
<g clip-path="url(#clip0_608_2313)">
<path d="M340.6 580.9L257.1 592.9L189.5 537.5L247.6 503.1L312.7 521.8L340.6 580.9Z" stroke="white" stroke-width="1.3088" stroke-miterlimit="10"/>
<path d="M298.9 280.1L183.6 246.3L153 193.4" stroke="white" stroke-width="1.3088" stroke-miterlimit="10"/>
<path d="M298.9 280.1L412.2 241.3L453.6 194.9" stroke="white" stroke-width="1.3088" stroke-miterlimit="10"/>
<path d="M298.9 310.5L182.7 276.1L133.9 234.6" stroke="white" stroke-width="1.3088" stroke-miterlimit="10"/>
<path d="M298.9 310.5L415.6 279.4L461.3 234.6" stroke="white" stroke-width="1.3088" stroke-miterlimit="10"/>
<path d="M263.6 228L220 141L242.3 63.7001L176.9 7.1001L192.3 83.8001L145.9 12.3001V96.8001L220 141" stroke="white" stroke-width="1.3088" stroke-miterlimit="10"/>
<path d="M331.6 229.8L381.7 143.5" stroke="white" stroke-width="1.3088" stroke-miterlimit="10"/>
<path d="M284.2 191.1L261.2 125.1" stroke="white" stroke-width="1.3088" stroke-miterlimit="10"/>
<path d="M337.3 125.1L313.7 191.1" stroke="white" stroke-width="1.3088" stroke-miterlimit="10"/>
<path d="M152.6 381.2L186.3 356.2C186.3 356.2 253.6 331 256 329.2L183.3 307.6L120 318.9" stroke="white" stroke-width="1.3088" stroke-miterlimit="10"/>
<path d="M453.3 381.3L412.1 356.8C412.1 356.8 346.1 331.5 340.2 329.3L416.7 309.6L475.1 320" stroke="white" stroke-width="1.3088" stroke-miterlimit="10"/>
<path d="M255.9 329.3H340.3" stroke="white" stroke-width="1.3088" stroke-miterlimit="10"/>
<path d="M335.4 382.7L266 382.9" stroke="white" stroke-width="1.3088" stroke-miterlimit="10"/>
<path d="M299.3 448.9L335.4 382.7L347 263.5L313.7 191.1H297.6H284.2L243.6 263.9L266 382.9L299.3 448.9Z" stroke="white" stroke-width="1.3088" stroke-miterlimit="10"/>
<path d="M299.3 448.9L312.7 521.8" stroke="white" stroke-width="1.3088" stroke-miterlimit="10"/>
<path d="M247.6 503.1L299.3 448.9" stroke="white" stroke-width="1.3088" stroke-miterlimit="10"/>
<path d="M381.7 143.5L371.3 61.9001L446.6 19.4001L416.2 91.9001L475.9 30.7001L459.2 113.4L381.7 143.5Z" stroke="white" stroke-width="1.3088" stroke-miterlimit="10"/>
<path d="M247.6 507.4C249.92 507.4 251.8 505.52 251.8 503.2C251.8 500.88 249.92 499 247.6 499C245.28 499 243.4 500.88 243.4 503.2C243.4 505.52 245.28 507.4 247.6 507.4Z" fill="white"/>
<path d="M478.3 29.9C478.7 31.2 478 32.6 476.6 33.1C475.3 33.5 473.8 32.8 473.4 31.5C473 30.2 473.7 28.8 475.1 28.3C476.5 27.9 477.9 28.6 478.3 29.9Z" fill="white"/>
<path d="M145.9 18.6C149.379 18.6 152.2 15.7794 152.2 12.3C152.2 8.82061 149.379 6 145.9 6C142.421 6 139.6 8.82061 139.6 12.3C139.6 15.7794 142.421 18.6 145.9 18.6Z" fill="white"/>
<path d="M145.9 100.5C147.943 100.5 149.6 98.8436 149.6 96.8001C149.6 94.7566 147.943 93.1001 145.9 93.1001C143.857 93.1001 142.2 94.7566 142.2 96.8001C142.2 98.8436 143.857 100.5 145.9 100.5Z" fill="white"/>
<path d="M242.3 67.4C244.343 67.4 246 65.7435 246 63.7C246 61.6565 244.343 60 242.3 60C240.257 60 238.6 61.6565 238.6 63.7C238.6 65.7435 240.257 67.4 242.3 67.4Z" fill="white"/>
<path d="M192.3 88.2001C194.73 88.2001 196.7 86.2302 196.7 83.8001C196.7 81.3701 194.73 79.4001 192.3 79.4001C189.87 79.4001 187.9 81.3701 187.9 83.8001C187.9 86.2302 189.87 88.2001 192.3 88.2001Z" fill="white"/>
<path d="M223 140.2C223.1 141.8 222 143.1 220.4 143.3C219.7 143.4 219.1 143.2 218.5 142.8C217.8 142.3 217.4 141.6 217.3 140.7C217.2 139.1 218.3 137.8 219.9 137.6C221.5 137.5 222.9 138.7 223 140.2Z" fill="white"/>
<path d="M261.2 128.8C263.52 128.8 265.4 126.92 265.4 124.6C265.4 122.281 263.52 120.4 261.2 120.4C258.88 120.4 257 122.281 257 124.6C257 126.92 258.88 128.8 261.2 128.8Z" fill="white"/>
<path d="M337.3 129.1C339.62 129.1 341.5 127.22 341.5 124.9C341.5 122.58 339.62 120.7 337.3 120.7C334.98 120.7 333.1 122.58 333.1 124.9C333.1 127.22 334.98 129.1 337.3 129.1Z" fill="white"/>
<path d="M381.7 147.7C384.02 147.7 385.9 145.82 385.9 143.5C385.9 141.18 384.02 139.3 381.7 139.3C379.38 139.3 377.5 141.18 377.5 143.5C377.5 145.82 379.38 147.7 381.7 147.7Z" fill="white"/>
<path d="M459.1 116.5C460.757 116.5 462.1 115.157 462.1 113.5C462.1 111.843 460.757 110.5 459.1 110.5C457.443 110.5 456.1 111.843 456.1 113.5C456.1 115.157 457.443 116.5 459.1 116.5Z" fill="white"/>
<path d="M446.6 23.6C448.92 23.6 450.8 21.7195 450.8 19.4C450.8 17.0804 448.92 15.2 446.6 15.2C444.28 15.2 442.4 17.0804 442.4 19.4C442.4 21.7195 444.28 23.6 446.6 23.6Z" fill="white"/>
<path d="M371.3 66.0999C373.62 66.0999 375.5 64.2195 375.5 61.9C375.5 59.5804 373.62 57.7 371.3 57.7C368.98 57.7 367.1 59.5804 367.1 61.9C367.1 64.2195 368.98 66.0999 371.3 66.0999Z" fill="white"/>
<path d="M331.6 234C333.92 234 335.8 232.12 335.8 229.8C335.8 227.48 333.92 225.6 331.6 225.6C329.28 225.6 327.4 227.48 327.4 229.8C327.4 232.12 329.28 234 331.6 234Z" fill="white"/>
<path d="M313.7 197.4C317.179 197.4 320 194.579 320 191.1C320 187.621 317.179 184.8 313.7 184.8C310.221 184.8 307.4 187.621 307.4 191.1C307.4 194.579 310.221 197.4 313.7 197.4Z" fill="white"/>
<path d="M284.2 196.7C287.569 196.7 290.3 193.969 290.3 190.6C290.3 187.231 287.569 184.5 284.2 184.5C280.831 184.5 278.1 187.231 278.1 190.6C278.1 193.969 280.831 196.7 284.2 196.7Z" fill="white"/>
<path d="M263.6 232.2C265.92 232.2 267.8 230.32 267.8 228C267.8 225.68 265.92 223.8 263.6 223.8C261.28 223.8 259.4 225.68 259.4 228C259.4 230.32 261.28 232.2 263.6 232.2Z" fill="white"/>
<path d="M243.6 267.9C245.92 267.9 247.8 266.02 247.8 263.7C247.8 261.38 245.92 259.5 243.6 259.5C241.28 259.5 239.4 261.38 239.4 263.7C239.4 266.02 241.28 267.9 243.6 267.9Z" fill="white"/>
<path d="M153 197.6C155.32 197.6 157.2 195.72 157.2 193.4C157.2 191.08 155.32 189.2 153 189.2C150.68 189.2 148.8 191.08 148.8 193.4C148.8 195.72 150.68 197.6 153 197.6Z" fill="white"/>
<path d="M133.9 238.8C136.22 238.8 138.1 236.92 138.1 234.6C138.1 232.281 136.22 230.4 133.9 230.4C131.58 230.4 129.7 232.281 129.7 234.6C129.7 236.92 131.58 238.8 133.9 238.8Z" fill="white"/>
<path d="M183.2 278.7C184.857 278.7 186.2 277.357 186.2 275.7C186.2 274.043 184.857 272.7 183.2 272.7C181.543 272.7 180.2 274.043 180.2 275.7C180.2 277.357 181.543 278.7 183.2 278.7Z" fill="white"/>
<path d="M249.6 300.1C251.92 300.1 253.8 298.22 253.8 295.9C253.8 293.581 251.92 291.7 249.6 291.7C247.28 291.7 245.4 293.581 245.4 295.9C245.4 298.22 247.28 300.1 249.6 300.1Z" fill="white"/>
<path d="M343.7 302.7C346.02 302.7 347.9 300.82 347.9 298.5C347.9 296.18 346.02 294.3 343.7 294.3C341.38 294.3 339.5 296.18 339.5 298.5C339.5 300.82 341.38 302.7 343.7 302.7Z" fill="white"/>
<path d="M461.3 237.6C462.957 237.6 464.3 236.257 464.3 234.6C464.3 232.943 462.957 231.6 461.3 231.6C459.643 231.6 458.3 232.943 458.3 234.6C458.3 236.257 459.643 237.6 461.3 237.6Z" fill="white"/>
<path d="M415.7 282.9C417.523 282.9 419 281.423 419 279.6C419 277.778 417.523 276.3 415.7 276.3C413.877 276.3 412.4 277.778 412.4 279.6C412.4 281.423 413.877 282.9 415.7 282.9Z" fill="white"/>
<path d="M340.3 333.5C342.62 333.5 344.5 331.62 344.5 329.3C344.5 326.98 342.62 325.1 340.3 325.1C337.98 325.1 336.1 326.98 336.1 329.3C336.1 331.62 337.98 333.5 340.3 333.5Z" fill="white"/>
<path d="M412.1 361.1C414.42 361.1 416.3 359.22 416.3 356.9C416.3 354.581 414.42 352.7 412.1 352.7C409.78 352.7 407.9 354.581 407.9 356.9C407.9 359.22 409.78 361.1 412.1 361.1Z" fill="white"/>
<path d="M453.3 384.8C455.233 384.8 456.8 383.233 456.8 381.3C456.8 379.367 455.233 377.8 453.3 377.8C451.367 377.8 449.8 379.367 449.8 381.3C449.8 383.233 451.367 384.8 453.3 384.8Z" fill="white"/>
<path d="M120 323.1C122.32 323.1 124.2 321.22 124.2 318.9C124.2 316.581 122.32 314.7 120 314.7C117.68 314.7 115.8 316.581 115.8 318.9C115.8 321.22 117.68 323.1 120 323.1Z" fill="white"/>
<path d="M183.3 310.7C184.957 310.7 186.3 309.357 186.3 307.7C186.3 306.043 184.957 304.7 183.3 304.7C181.643 304.7 180.3 306.043 180.3 307.7C180.3 309.357 181.643 310.7 183.3 310.7Z" fill="white"/>
<path d="M186 360.3C188.32 360.3 190.2 358.42 190.2 356.1C190.2 353.781 188.32 351.9 186 351.9C183.68 351.9 181.8 353.781 181.8 356.1C181.8 358.42 183.68 360.3 186 360.3Z" fill="white"/>
<path d="M152.6 385.5C154.92 385.5 156.8 383.62 156.8 381.3C156.8 378.98 154.92 377.1 152.6 377.1C150.28 377.1 148.4 378.98 148.4 381.3C148.4 383.62 150.28 385.5 152.6 385.5Z" fill="white"/>
<path d="M335.4 387C337.72 387 339.6 385.12 339.6 382.8C339.6 380.48 337.72 378.6 335.4 378.6C333.08 378.6 331.2 380.48 331.2 382.8C331.2 385.12 333.08 387 335.4 387Z" fill="white"/>
<path d="M299.3 453.1C301.62 453.1 303.5 451.22 303.5 448.9C303.5 446.581 301.62 444.7 299.3 444.7C296.98 444.7 295.1 446.581 295.1 448.9C295.1 451.22 296.98 453.1 299.3 453.1Z" fill="white"/>
<path d="M312.7 526.3C315.185 526.3 317.2 524.285 317.2 521.8C317.2 519.315 315.185 517.3 312.7 517.3C310.215 517.3 308.2 519.315 308.2 521.8C308.2 524.285 310.215 526.3 312.7 526.3Z" fill="white"/>
<path d="M189.5 540.5C191.157 540.5 192.5 539.157 192.5 537.5C192.5 535.843 191.157 534.5 189.5 534.5C187.843 534.5 186.5 535.843 186.5 537.5C186.5 539.157 187.843 540.5 189.5 540.5Z" fill="white"/>
<path d="M256.4 597.3C259.051 597.3 261.2 595.151 261.2 592.5C261.2 589.849 259.051 587.7 256.4 587.7C253.749 587.7 251.6 589.849 251.6 592.5C251.6 595.151 253.749 597.3 256.4 597.3Z" fill="white"/>
<path d="M340.5 584.7C342.82 584.7 344.7 582.82 344.7 580.5C344.7 578.18 342.82 576.3 340.5 576.3C338.18 576.3 336.3 578.18 336.3 580.5C336.3 582.82 338.18 584.7 340.5 584.7Z" fill="white"/>
<path d="M255.9 333.5C258.22 333.5 260.1 331.62 260.1 329.3C260.1 326.98 258.22 325.1 255.9 325.1C253.58 325.1 251.7 326.98 251.7 329.3C251.7 331.62 253.58 333.5 255.9 333.5Z" fill="white"/>
<path d="M298.9 314.7C301.22 314.7 303.1 312.82 303.1 310.5C303.1 308.18 301.22 306.3 298.9 306.3C296.58 306.3 294.7 308.18 294.7 310.5C294.7 312.82 296.58 314.7 298.9 314.7Z" fill="white"/>
<path d="M298.9 284.3C301.22 284.3 303.1 282.42 303.1 280.1C303.1 277.781 301.22 275.9 298.9 275.9C296.58 275.9 294.7 277.781 294.7 280.1C294.7 282.42 296.58 284.3 298.9 284.3Z" fill="white"/>
<path d="M453.6 197.9C455.257 197.9 456.6 196.557 456.6 194.9C456.6 193.243 455.257 191.9 453.6 191.9C451.943 191.9 450.6 193.243 450.6 194.9C450.6 196.557 451.943 197.9 453.6 197.9Z" fill="white"/>
<path d="M475.2 322.4C476.581 322.4 477.7 321.281 477.7 319.9C477.7 318.519 476.581 317.4 475.2 317.4C473.819 317.4 472.7 318.519 472.7 319.9C472.7 321.281 473.819 322.4 475.2 322.4Z" fill="white"/>
<path d="M416.9 312.3C418.391 312.3 419.6 311.091 419.6 309.6C419.6 308.109 418.391 306.9 416.9 306.9C415.409 306.9 414.2 308.109 414.2 309.6C414.2 311.091 415.409 312.3 416.9 312.3Z" fill="white"/>
<path d="M347 268.2C349.43 268.2 351.4 266.23 351.4 263.8C351.4 261.37 349.43 259.4 347 259.4C344.57 259.4 342.6 261.37 342.6 263.8C342.6 266.23 344.57 268.2 347 268.2Z" fill="white"/>
<path d="M176.9 13.4C180.379 13.4 183.2 10.5794 183.2 7.10005C183.2 3.62066 180.379 0.800049 176.9 0.800049C173.421 0.800049 170.6 3.62066 170.6 7.10005C170.6 10.5794 173.421 13.4 176.9 13.4Z" fill="white"/>
<path d="M416.3 98.2001C419.835 98.2001 422.7 95.3348 422.7 91.8001C422.7 88.2655 419.835 85.4001 416.3 85.4001C412.765 85.4001 409.9 88.2655 409.9 91.8001C409.9 95.3348 412.765 98.2001 416.3 98.2001Z" fill="white"/>
<path d="M266 389.2C269.479 389.2 272.3 386.379 272.3 382.9C272.3 379.421 269.479 376.6 266 376.6C262.521 376.6 259.7 379.421 259.7 382.9C259.7 386.379 262.521 389.2 266 389.2Z" fill="white"/>
<path d="M412.2 244.2C413.802 244.2 415.1 242.902 415.1 241.3C415.1 239.699 413.802 238.4 412.2 238.4C410.598 238.4 409.3 239.699 409.3 241.3C409.3 242.902 410.598 244.2 412.2 244.2Z" fill="white"/>
<path d="M183.9 249.5C185.557 249.5 186.9 248.157 186.9 246.5C186.9 244.843 185.557 243.5 183.9 243.5C182.243 243.5 180.9 244.843 180.9 246.5C180.9 248.157 182.243 249.5 183.9 249.5Z" fill="white"/>
</g>
<defs>
<clipPath id="clip0_608_2313">
<rect width="595" height="597" fill="white"/>
</clipPath>
</defs>
</svg>
